<!DOCTYPE svg PUBLIC "-//W3C//DTD SVG 1.1//EN" "http://www.w3.org/Graphics/SVG/1.1/DTD/svg11.dtd">
<!-- Uploaded to: SVG Repo, www.svgrepo.com, Transformed by: SVG Repo Mixer Tools -->
<svg height="64px" width="64px" version="1.1" id="Capa_1" xmlns="http://www.w3.org/2000/svg" xmlns:xlink="http://www.w3.org/1999/xlink" viewBox="0 0 496.468 496.468" xml:space="preserve" fill="#4770FF">
<g id="SVGRepo_bgCarrier" stroke-width="0"/>
<g id="SVGRepo_tracerCarrier" stroke-linecap="round" stroke-linejoin="round"/>
<g id="SVGRepo_iconCarrier"> <g> <g> <polygon style="fill:#4770FF;" points="341.398,246.205 146.538,246.205 146.538,277.267 165.483,277.267 165.483,427.976 306.586,427.976 306.586,277.267 341.398,277.267 "/> <circle style="fill:#4770FF;" cx="392.806" cy="143.917" r="37.47"/> <path style="fill:#4770FF;" d="M466.827,289.777c0-10.543-17.833-87.841-17.833-87.841c-3.229-15.065-18.508-22.298-31.476-22.677 l-0.124,0.007c0,0-4.574,0.023-8.51,0.785c-4.117,0.78-7.733,2.771-7.733,2.771c-6.81,3.3-13.322,9.138-16.972,16.395 c-25.186,2.627-47.332-2.833-61.621-15.557c-5.115-4.536-12.487-4.787-17.891-1.093l-54.18-44.718 c-1.688-1.396-4.211-1.163-5.61,0.537c-1.403,1.692-1.163,4.212,0.537,5.61l54.19,44.733c-2.44,5.61-1.214,12.361,3.603,16.649 c17.341,15.448,41.707,23.617,69.104,23.617c3.973,0,8.007-0.189,12.086-0.541l12.18,55.498 c-36.691,9.002-42.827,19.313-45.139,23.578c-7.734,14.313-18.484,73.908-22.751,98.869c-1.831,10.787,5.434,21.043,16.229,22.891 c1.12,0.199,2.249,0.293,3.361,0.277c9.48,0,17.865-6.824,19.535-16.49c5.688-33.322,17.742-85.734,17.742-85.734 C412.705,329.416,466.827,324.672,466.827,289.777z"/> <path style="fill:#4770FF;" d="M496.468,241.302v-31.294h-15.95v31.294c0,50.945-6.196,89.926-84.287,89.926v15.941 c12.231,0,22.928-0.975,32.388-2.76v47.951h-17.605c-18.13,0-32.874,14.736-32.874,32.883h15.95 c0-9.352,7.588-16.947,16.938-16.947h51.15c9.343,0,16.932,7.598,16.932,16.947h15.95c0-18.146-14.745-32.883-32.874-32.883 h-17.604v-52.102C491.638,323.994,496.468,281.599,496.468,241.302z"/> <path style="fill:#4770FF;" d="M78.843,145.491c22.02,0,39.872-17.851,39.872-39.875c0-22.021-17.851-39.876-39.872-39.876 c-22.025,0-39.876,17.855-39.875,39.876C38.968,127.64,56.819,145.491,78.843,145.491z"/> <path style="fill:#4770FF;" d="M167.952,194.547c-3.427-7.836-12.55-11.414-20.394-7.963 c-24.934,10.939-42.739,5.533-57.638-17.322c-6.177-11.195-11.279-18.041-19.958-22.26c0,0-3.848-2.114-8.23-2.952 c-4.196-0.796-9.068-0.823-9.068-0.823l-0.112-0.008c-13.81,0.398-30.069,8.099-33.504,24.13L0.617,253.422 c-2.461,11.48,2.689,21.742,10.993,28.838l-0.081,127.355c-0.008,11.654,9.439,21.113,21.097,21.113h0.008 c11.657,0,21.104-9.438,21.112-21.1l0.081-120.199c8.721-3.471,16.093-10.18,18.334-20.674l12.747-59.508 c11.862,9.046,25.285,13.729,39.891,13.729c11.128,0,22.917-2.658,35.192-8.041C167.825,211.506,171.388,202.374,167.952,194.547z "/> </g> </g> </g>
</svg>