<!DOCTYPE svg PUBLIC "-//W3C//DTD SVG 1.1//EN" "http://www.w3.org/Graphics/SVG/1.1/DTD/svg11.dtd">
<!-- Uploaded to: SVG Repo, www.svgrepo.com, Transformed by: SVG Repo Mixer Tools -->
<svg fill="#4770FF" height="64px" width="64px" version="1.1" id="Layer_1" xmlns="http://www.w3.org/2000/svg" xmlns:xlink="http://www.w3.org/1999/xlink" viewBox="0 0 496 496" xml:space="preserve" stroke="#4770FF">
<g id="SVGRepo_bgCarrier" stroke-width="0"/>
<g id="SVGRepo_tracerCarrier" stroke-linecap="round" stroke-linejoin="round"/>
<g id="SVGRepo_iconCarrier"> <g> <g> <path d="M296,0C185.72,0,96,89.72,96,200c0,32.568,8.096,64.696,23.288,93.4L17.256,395.432C6.128,406.56,0,421.352,0,437.088 C0,469.576,26.424,496,58.912,496c15.736,0,30.528-6.128,41.656-17.256L202.6,376.712C231.304,391.904,263.432,400,296,400 c110.28,0,200-89.72,200-200S406.28,0,296,0z M89.256,467.432C81.152,475.536,70.376,480,58.912,480 C35.248,480,16,460.752,16,437.088c0-11.464,4.464-22.24,12.568-30.344L32,403.312L92.688,464L89.256,467.432z M104,452.688 L43.312,392L60,375.312L120.688,436L104,452.688z M132,424.688L107.312,400l10.344-10.344l-11.312-11.312L96,388.688L71.312,364 L212,223.312L236.688,248L122.344,362.344l11.312,11.312L248,259.312L272.688,284L132,424.688z M280,200c0-8.824,7.176-16,16-16 c8.824,0,16,7.176,16,16c0,8.824-7.176,16-16,16v-16H280z M296,232c17.648,0,32-14.352,32-32s-14.352-32-32-32s-32,14.352-32,32 h-40c0-39.696,32.304-72,72-72s72,32.304,72,72s-32.304,72-72,72V232z M280,216v52.688L227.312,216H280z M296,384 c-28.32,0-56.288-6.608-81.568-19.12l30.424-30.424C261.2,340.68,278.344,344,296,344c42.248,0,82.224-18.52,109.68-50.816 l-12.184-10.368C369.08,311.528,333.544,328,296,328c-13.264,0-26.224-2.032-38.688-5.992l34.232-34.232 c1.48,0.08,2.952,0.224,4.456,0.224c48.52,0,88-39.48,88-88c0-48.52-39.48-88-88-88c-48.52,0-88,39.48-88,88 c0,1.504,0.144,2.976,0.224,4.464l-34.232,34.232C170.032,226.224,168,213.264,168,200c0-70.576,57.424-128,128-128 s128,57.424,128,128c0,23.896-6.76,47.328-19.552,67.752l13.56,8.496C432.392,253.272,440,226.904,440,200 c0-79.4-64.6-144-144-144s-144,64.6-144,144c0,17.656,3.32,34.8,9.544,51.144l-30.424,30.424C118.608,256.288,112,228.32,112,200 c0-101.456,82.544-184,184-184s184,82.544,184,184S397.456,384,296,384z"/> </g> </g> </g>
</svg>