<svg xmlns:xlink="http://www.w3.org/1999/xlink" xmlns="http://www.w3.org/2000/svg" width="79.9" height="79.9" viewBox="0 0 79.9 79.9"><path fill="#DE4A09" d="M0 79.9h79.9V0H0z"></path><path d="M17.4 57.9c-.4.1-2.6.7-4.5.7-2.4 0-4.9-.7-4.9-6.5 0-5.7 3.3-6.7 5.8-6.7 1.8 0 3.2.7 3.2.7v1.7s-1.6-.6-3.2-.6-3.5.7-3.5 4.8c0 4.2 1.5 4.8 2.8 4.8.9 0 2.1-.3 2.1-.3v-4.3h-2l-.2-1.6h4.4v7.3zm1.4-12.5h9.4l-.3 2h-3.1v11.1h-2.5v-11h-3.6v-2.1zm11.4.1l4.4-.1c5.5 0 5.4 5.9 2.2 6.2 3.5.5 3.3 5.7 0 6.9h-6.5v-13zm2.4 2v3.4h2.3c1.3-.1 2-3 .1-3.4h-2.4zm0 5.2v3.8h2.3c2.6 0 2-3.7.1-3.8h-2.4zm9.1-3.6c3.3-1.5 7.1-1.2 7.7 1.3v8.1h-2.3v-1.3c-2 2.2-6.8 1.8-6.2-2.7.4-2.1 2.6-2.7 6-2.4.3-2.9-3.4-1.5-5.2-1v-2zm1.9 5.1c-1.5 2.5 1.5 3.3 3.3 1.4v-1.7c-1.1-.4-2.8-.4-3.3.3zm10.6-2.7v7.1h-2.6V48.3H54v1.2c3.6-2.1 6.5-1.5 7 1.5v7.5h-2.6v-7.1c-.5-1.8-3.6-.6-4.2.1zm8.7 7.1V45.4h2.5v13.1h-2.5zm6-10.3h3l-3.5 4.6 3.8 5.7h-2.8l-3.7-5.8 3.2-4.5zM45.6 31.4h20V11.5h-20z" fill="#FEFEFE"></path></svg>