<?xml version="1.0" encoding="iso-8859-1"?>
<!-- Uploaded to: SVG Repo, www.svgrepo.com, Generator: SVG Repo Mixer Tools -->
<svg width="64px" height="64px" version="1.1" id="Layer_1" xmlns="http://www.w3.org/2000/svg" xmlns:xlink="http://www.w3.org/1999/xlink" 
	 viewBox="0 0 512 512" fill="#4770FF" xml:space="preserve">
<g>
	<g>
		<path d="M448,182.857h-73.143c-5.056,0-9.143,4.096-9.143,9.143v54.857c0,5.047,4.087,9.143,9.143,9.143v150.126l-57.289,32.731
			H210.286v18.286H320c1.591,0,3.154-0.411,4.535-1.207l50.322-28.754v48.247c0,20.169,16.402,36.571,36.571,36.571
			S448,495.598,448,475.429V256c5.056,0,9.143-4.096,9.143-9.143V192C457.143,186.953,453.056,182.857,448,182.857z
			 M429.714,475.429c0,10.085-8.201,18.286-18.286,18.286s-18.286-8.201-18.286-18.286V329.143h36.571V475.429z M429.714,310.857
			h-36.571V256h36.571V310.857z M438.857,237.714H384v-36.571h54.857V237.714z" />
	</g>
</g>
<g>
	<g>
		<path d="M256,0C114.843,0,0,114.843,0,256s114.843,256,256,256c36.306,0,71.397-7.451,104.302-22.144l-7.461-16.695
			c-30.537,13.641-63.122,20.553-96.841,20.553c-66.743,0-127.104-27.685-170.322-72.128l174.254-156.827l88.503-9.838
			l-2.021-18.167l-81.271,9.033V18.514c114.962,4.379,209.262,90.725,225.938,202.167l-16.658,1.856l2.021,18.167l16.594-1.847
			c0.393,5.669,0.677,11.374,0.677,17.143c0,43.584-11.895,86.199-34.405,123.255l15.625,9.49C499.191,348.827,512,302.93,512,256
			C512,114.843,397.157,0,256,0z M73.417,408.027C39.022,366.784,18.286,313.774,18.286,256c0-27.959,4.891-54.784,13.797-79.717
			l206.885,82.752L73.417,408.027z M246.857,242.487L38.912,159.314c35.941-80.375,115.2-137.271,207.945-140.8V242.487z" />
	</g>
</g>
<g>
	<g>
		<rect x="210.286" y="365.714" width="18.286" height="18.286"  />
	</g>
</g>
<g>
	<g>
		<rect x="246.857" y="365.714" width="18.286" height="18.286" />
	</g>
</g>
<g>
	<g>
		<rect x="283.429" y="365.714" width="18.286" height="18.286" />
	</g>
</g>
<g>
	<g>
		<rect x="210.286" y="402.286" width="18.286" height="18.286" />
	</g>
</g>
<g>
	<g>
		<rect x="246.857" y="402.286" width="18.286" height="18.286" />
	</g>
</g>
<g>
	<g>
		<rect x="283.429" y="402.286" width="18.286" height="18.286" />
	</g>
</g>
</svg>