<svg id="Logo" xmlns="http://www.w3.org/2000/svg" width="254.239" height="35.346" viewBox="0 0 254.239 35.346">
  <g id="Text" transform="translate(65.186)">
    <path id="Path_115" data-name="Path 115" d="M134.565,83.154h-9.089l-2.144,5.64h-5.975L128.48,60.28a2.42,2.42,0,0,1,2.982,0l11.054,28.58h-5.739Zm-8.22-3.328h7.488l-2.588-6.735-1.207-3.679-1.172,3.75Z" transform="translate(-117.357 -59.766)" fill="#fff"/>
    <path id="Path_116" data-name="Path 116" d="M149.285,82.536c0,1.047-.068,3.014,1.461,2.446l1.9,3.7c-5.046,1.136-8.217.594-8.217-4.48V63.626l3.6-1.807a.9.9,0,0,1,.771,0,1,1,0,0,1,.486.4Z" transform="translate(-117.357 -59.766)" fill="#fff"/>
    <path id="Path_117" data-name="Path 117" d="M154.711,71.932h3.856l.835,1.838h.65c2.758-3.833,7.883-3.579,10.138.914s1.693,13.681-5.712,14.517a10.488,10.488,0,0,1-4.868-1.086v7l-4.9-.514Zm7.9,3.144a3.616,3.616,0,0,0-2.267.813c-.642.522-.571,1.248-.742,2.057v6.81a3.08,3.08,0,0,0,1.876.908c7.109.57,6.081-10.59,1.135-10.59Z" transform="translate(-117.357 -59.766)" fill="#fff"/>
    <path id="Path_118" data-name="Path 118" d="M184.811,88.945V79.123c0-1.588-.177-4.3-2.031-4.3-2.625,0-3.622,1.529-3.622,3.071V88.945h-4.914V63.758l3.6-1.882a1.457,1.457,0,0,1,.771-.174.541.541,0,0,1,.545.514V72.969h.137a6.054,6.054,0,0,1,6.9-1.8c3.078.993,3.472,4.632,3.472,7.41v10.3h-4.854Z" transform="translate(-117.357 -59.766)" fill="#fff"/>
    <path id="Path_119" data-name="Path 119" d="M193.777,73.524c3.084-2.056,6.88-3.084,10.537-1.542s3.658,3.974,3.658,6.425.2,6.562.2,10.775h-3.6l-.771-1.96h-.514a6.89,6.89,0,0,1-5.654,2.236c-2.313,0-4.65-1.109-4.883-3.808-.514-5.958,6.622-7.471,10.794-6.472,0-2.361-1.176-3.747-2.827-3.855a5.611,5.611,0,0,0-4.369,1.285,1.338,1.338,0,0,1-1.285-.257,2.5,2.5,0,0,1-1.285-1.542A1.78,1.78,0,0,1,193.777,73.524Zm6.168,12.593c1.4.04,2.937-1.329,3.6-2.57V82.262c-1.028-.771-5.14,0-5.911,1.285S198.309,86.195,199.945,86.117Z" transform="translate(-117.357 -59.766)" fill="#fff"/>
    <path id="Path_120" data-name="Path 120" d="M229.171,72.482a14.22,14.22,0,0,1,2.5-.729l.772-3.479a1.754,1.754,0,0,1,.746-1.114c.63-.388.936-.319.936-.319h2.061v4.912h4.749v3.574h-4.746V81.5c0,.978.007,3.288.725,3.826a2.27,2.27,0,0,0,2.495,0l2.239,2.687a7.645,7.645,0,0,1-7.884.914c-1.438-.744-2.089-3.06-2.089-5.145V75.327h-2.751S228.825,72.746,229.171,72.482Z" transform="translate(-117.357 -59.766)" fill="#fff"/>
    <path id="Path_121" data-name="Path 121" d="M254.676,76.215c-2.106-.755-5.6.23-5.6,2.711l-.136,10.019h-4.788l.116-17.209s3.128-.6,3.7,0a7.3,7.3,0,0,1,.973,2.516h.133a4.486,4.486,0,0,1,1.014-1.517,4.568,4.568,0,0,1,1.54-1,5.065,5.065,0,0,1,3.6,0Z" transform="translate(-117.357 -59.766)" fill="#fff"/>
    <path id="Path_122" data-name="Path 122" d="M272.951,86.439a8.876,8.876,0,0,1-5.725,2.879,12.1,12.1,0,0,1-5.472-.359c-3.06-.956-4.624-3.641-5.08-6.448-.457-3.44-.2-6.567,2.149-8.9,2.345-2.388,6.513-2.866,9.77-1.97a6.5,6.5,0,0,1,2.556,1.455,5.785,5.785,0,0,1,1.547,2.366,11.6,11.6,0,0,1,0,5.97h-11.2c.114,3.128,2.833,4.658,5.733,4.18,1.124-.185,2.587-1.756,3.309-1.666S272.951,86.439,272.951,86.439Zm-7.487-11.573a3.8,3.8,0,0,0-1.526.218,3.534,3.534,0,0,0-1.275.8,3.78,3.78,0,0,0-1.172,2.352h6.971a2.994,2.994,0,0,0-.52-2.234,2.57,2.57,0,0,0-1.063-.889A2.839,2.839,0,0,0,265.464,74.867Z" transform="translate(-117.357 -59.766)" fill="#fff"/>
    <path id="Path_123" data-name="Path 123" d="M291.75,86.439a8.879,8.879,0,0,1-5.726,2.879,12.1,12.1,0,0,1-5.471-.359c-3.061-.956-4.624-3.641-5.081-6.448-.456-3.44-.195-6.567,2.149-8.9,2.346-2.388,6.513-2.866,9.77-1.97a6.505,6.505,0,0,1,2.557,1.455,5.8,5.8,0,0,1,1.547,2.366,11.6,11.6,0,0,1,0,5.97h-11.2c.114,3.128,2.834,4.658,5.733,4.18,1.124-.185,2.587-1.756,3.309-1.666S291.75,86.439,291.75,86.439Zm-7.488-11.573a3.788,3.788,0,0,0-1.525.218,3.525,3.525,0,0,0-1.275.8,3.77,3.77,0,0,0-1.172,2.352h6.97A2.994,2.994,0,0,0,286.74,76a2.558,2.558,0,0,0-1.063-.889A2.839,2.839,0,0,0,284.262,74.867Z" transform="translate(-117.357 -59.766)" fill="#fff"/>
    <path id="Path_124" data-name="Path 124" d="M293.93,72.482a14.221,14.221,0,0,1,2.5-.729l.772-3.479a1.749,1.749,0,0,1,.746-1.114c.629-.388.935-.319.935-.319h2.061v4.912h4.75v3.574h-4.746V81.5c0,.978.007,3.288.724,3.826a2.272,2.272,0,0,0,2.5,0l2.239,2.687a7.647,7.647,0,0,1-7.885.914c-1.437-.744-2.088-3.06-2.088-5.145V75.327h-2.751S293.584,72.746,293.93,72.482Z" transform="translate(-117.357 -59.766)" fill="#fff"/>
    <path id="Path_125" data-name="Path 125" d="M216.706,71.727a2.916,2.916,0,0,0,1.267,1.533c2.308,1.36,4.332,1.291,6.131,2.32s4.327,3.245,4.091,6.4a7.454,7.454,0,0,1-4.175,6.573c-2.583,1.18-5.817,1-8.577.626-1.474-.158-3.933-2.032-4.7-2.8,0,0,1.645-4.054,3.084-3.434a12,12,0,0,1,1.523.852h0a6.829,6.829,0,0,0,3.1,1.3c1.838.156,4.883-.514,4.369-3.341a2.752,2.752,0,0,0-1.8-2.056c-1.542-.771-2.643-.771-4.884-1.542-3.214-1.106-4.3-4.125-4.3-7.236a6.45,6.45,0,0,1,3.81-5.319c2.345-1.119,5.282-.946,7.787-.593a11.8,11.8,0,0,1,3.708,1.534c.2.108.387.212.563.306,0,0-1.285,3.6-2.427,3.6a3.746,3.746,0,0,1-1.725-.708,5.067,5.067,0,0,0-2.238-.894c-1.394-.123-3.209-.176-4.181,1A2.162,2.162,0,0,0,216.706,71.727Z" transform="translate(-117.357 -59.766)" fill="#fff"/>
  </g>
  <g id="Logo-2" data-name="Logo" transform="translate(0 0.121)">
    <path id="Rectangle_11" data-name="Rectangle 11" d="M27.172,33.565A11.941,11.941,0,0,1,39.113,21.624a.716.716,0,0,1,.716.716v5.941a6,6,0,0,1-6,6H27.888A.716.716,0,0,1,27.172,33.565Z" transform="translate(-27.172 -21.624)" fill="#1583e1"/>
    <path id="Rectangle_21" data-name="Rectangle 21" d="M56.479,33.565A11.941,11.941,0,0,0,44.538,21.624a.717.717,0,0,0-.716.716v5.941a6,6,0,0,0,6,6h5.941A.716.716,0,0,0,56.479,33.565Z" transform="translate(-27.172 -21.624)" fill="#1583e1"/>
    <path id="Rectangle_13" data-name="Rectangle 13" d="M27.172,38.981a.716.716,0,0,1,.716-.716H39.113a.716.716,0,0,1,.716.716v5.612a6.329,6.329,0,1,1-12.658,0Z" transform="translate(-27.172 -21.624)" fill="#1583e1"/>
    <path id="Rectangle_12" data-name="Rectangle 12" d="M43.813,38.982a.716.716,0,0,1,.716-.717h5.941a6,6,0,0,1,6,6v5.941a.716.716,0,0,1-.716.716A11.941,11.941,0,0,1,43.813,38.982Z" transform="translate(-27.172 -21.624)" fill="#1583e1"/>
    <path id="Rectangle_18" data-name="Rectangle 18" d="M60.455,50.206a.716.716,0,0,0,.716.716A11.941,11.941,0,0,0,73.113,38.981a.716.716,0,0,0-.716-.716H66.455a6,6,0,0,0-6,6Z" transform="translate(-27.172 -21.624)" fill="#52c680"/>
    <path id="Rectangle_20" data-name="Rectangle 20" d="M60.455,33.565a.716.716,0,0,0,.716.717H72.4a.716.716,0,0,0,.716-.717V27.953a6.329,6.329,0,1,0-12.658,0Z" transform="translate(-27.172 -21.624)" fill="#52c680"/>
  </g>
</svg>
