<?xml version="1.0" encoding="utf-8"?><!DOCTYPE svg PUBLIC "-//W3C//DTD SVG 1.1//EN" "http://www.w3.org/Graphics/SVG/1.1/DTD/svg11.dtd"><svg xmlns="http://www.w3.org/2000/svg" xmlns:xlink="http://www.w3.org/1999/xlink"><symbol viewBox="0 0 150 150" style="enable-background:new 0 0 150 150" xml:space="preserve" id="ATIC-icon-assurance" xmlns="http://www.w3.org/2000/svg"><circle class="aast0" cx="75" cy="74.4" r="72.5" fill="orange"/><path d="M126.3 41.4h-9.9c-.8 0-1.4.6-1.4 1.4v42.7c0 .8.6 1.4 1.4 1.4.8 0 1.4-.6 1.4-1.4V44.2h8.5c.8 0 1.4-.6 1.4-1.4 0-.8-.6-1.4-1.4-1.4zM106 76.9 83.8 54.6c-.3-.3-.6-.4-1-.4s-.7.1-1 .4l-9.1 9.2-.8.8c-.2.2-.4.4-.7.6 0 0-.1 0-.1.1-1.7 1.3-4.1 1.2-5.6-.3l-3-3 6.6-6.6 2-2c.1-.1.2-.2.4-.3l.1-.1 2-2 .1-.1C77 47.1 81.8 45 86.8 45c2.8 0 5.6.7 8.1 2 .3.1 6.6 3.3 10.6 3.5h2.6c.8 0 1.4-.6 1.4-1.4 0-.8-.6-1.4-1.4-1.4h-2.4c-2.8-.2-7.8-2.4-9.4-3.2-2.9-1.5-6.1-2.3-9.4-2.3-4.4 0-8.7 1.5-12.2 4.1-.3-.2-.6-.4-.8-.6-3.4-2.3-7.3-3.5-11.4-3.5-3.3 0-6.5.8-9.4 2.3-1.7.8-6.6 3.1-9.4 3.2h-2.3c-.8 0-1.4.6-1.4 1.4 0 .8.6 1.4 1.4 1.4h2.4c4-.2 10.3-3.4 10.6-3.5 2.5-1.3 5.3-2 8.1-2 3.5 0 6.9 1 9.8 3 .1.1.2.1.2.2-.3.3-.6.6-.8.9L69.8 51c-.2.2-.4.3-.6.5l-2 2-6.5 6.5c-.5.5-.8 1.2-.8 2 0 .7.3 1.4.8 2l3 3c2.5 2.5 6.4 2.7 9.2.6.4-.3.8-.6 1.1-.9l9-9 21.2 21.2 2.3 2.4c.8.8 1.2 1.9 1.2 3s-.4 2.2-1.2 3c-1.6 1.6-4.3 1.6-5.9 0L83.2 69.9c-.5-.5-1.4-.5-2 0-.5.5-.5 1.4 0 2l11.6 11.6 5.6 5.6c.8.8 1.2 1.8 1.2 3 0 1.1-.4 2.2-1.2 3-.8.8-1.8 1.2-3 1.2-1.1 0-2.2-.4-3-1.2L75.3 77.8c-.5-.5-1.4-.5-2 0-.5.5-.5 1.4 0 2l11.6 11.6 5.6 5.6c.8.8 1.2 1.9 1.2 3s-.4 2.2-1.2 3c-.8.8-1.8 1.2-3 1.2-1.1 0-2.2-.4-3-1.2l-2-2s-.1 0-.1-.1c-.3-1.3-.9-2.6-1.9-3.5-1.3-1.3-3.1-2-4.9-2-.3 0-.7 0-1 .1.3-2.1-.3-4.3-2-5.9-1.3-1.3-3.1-2-4.9-2-.3 0-.7 0-1 .1.3-2.1-.3-4.3-2-6-1.3-1.3-3.1-2-4.9-2-.3 0-.7 0-1 .1.3-2.1-.3-4.3-2-6-1.3-1.3-3.1-2-4.9-2-1.9 0-3.6.7-4.9 2l-5.6 5.6c-1.3 1.3-2 3.1-2 4.9 0 1.9.7 3.6 2 4.9 1.3 1.3 3.1 2 4.9 2 .3 0 .7 0 1-.1 0 .3-.1.7-.1 1 0 1.9.7 3.6 2 4.9 1.3 1.3 3.1 2 4.9 2 .3 0 .7 0 1-.1 0 .3-.1.7-.1 1 0 1.9.7 3.6 2 4.9 1.3 1.3 3.1 2 4.9 2 .3 0 .7 0 1-.1-.3 2.1.3 4.3 2 6 1.3 1.3 3.1 2 4.9 2 1.9 0 3.6-.7 4.9-2l5.6-5.6c.8-.8 1.3-1.7 1.7-2.7l.4.4c1.3 1.3 3.1 2 4.9 2 1.9 0 3.6-.7 4.9-2 1.3-1.3 2-3.1 2-4.9 0-.3 0-.7-.1-1 .3 0 .7.1 1 .1 1.9 0 3.6-.7 4.9-2 1.6-1.6 2.3-3.8 2-5.9.3 0 .7.1 1 .1 1.9 0 3.6-.7 4.9-2 1.3-1.3 2-3.1 2-4.9 0-1.9-.7-3.6-2-4.9l-1.9-2.5zM46.3 88.4c-1.1 0-2.2-.4-3-1.2-.8-.8-1.2-1.8-1.2-3 0-1.1.4-2.2 1.2-3l5.6-5.6c.8-.8 1.8-1.2 3-1.2 1.1 0 2.2.4 3 1.2 1.6 1.6 1.6 4.3 0 5.9l-5.6 5.6c-.9.8-1.9 1.3-3 1.3zm7.9 7.9c-1.1 0-2.2-.4-3-1.2-.8-.8-1.2-1.8-1.2-3 0-1.1.4-2.2 1.2-3l5.6-5.6c.8-.8 1.8-1.2 3-1.2 1.1 0 2.2.4 3 1.2 1.6 1.6 1.6 4.3 0 5.9L57.2 95c-.8.9-1.9 1.3-3 1.3zm7.9 7.9c-1.1 0-2.2-.4-3-1.2-.8-.8-1.2-1.8-1.2-3 0-1.1.4-2.2 1.2-3l5.6-5.6c.8-.8 1.8-1.2 3-1.2 1.1 0 2.2.4 3 1.2 1.6 1.6 1.6 4.3 0 5.9l-5.6 5.6c-.8.9-1.9 1.3-3 1.3zm16.5 1.1-5.6 5.6c-.8.8-1.8 1.2-3 1.2-1.1 0-2.2-.4-3-1.2-1.6-1.6-1.6-4.3 0-5.9l5.6-5.6c.8-.8 1.8-1.2 3-1.2 1.1 0 2.2.4 3 1.2.8.8 1.2 1.8 1.2 3 0 1-.4 2.1-1.2 2.9zM33.6 41.4c-.8 0-1.4.6-1.4 1.4v41.3h-8.5c-.8 0-1.4.6-1.4 1.4 0 .8.6 1.4 1.4 1.4h9.9c.8 0 1.4-.6 1.4-1.4V42.8c0-.8-.6-1.4-1.4-1.4z"/><path d="M27 78.4c.7-.7.7-1.9 0-2.6-.7-.7-1.9-.7-2.6 0-.7.7-.7 1.9 0 2.6.7.7 1.9.7 2.6 0zM123 75.8c-.7.7-.7 1.9 0 2.6.7.7 1.9.7 2.6 0 .7-.7.7-1.9 0-2.6-.7-.7-1.9-.7-2.6 0z"/></symbol><symbol viewBox="0 0 150 150" style="enable-background:new 0 0 150 150" xml:space="preserve" id="ATIC-icon-certification" xmlns="http://www.w3.org/2000/svg"><circle cx="75" cy="74.4" r="72.5" style="fill:#ffc700"/><path d="M85.5 113.7c-.6 0-1.3-.3-1.9-.7-.7-.6-1.1-1.4-1.1-2.3v-2.8h2c.5 0 .9-.4.9-1s-.4-1-.9-1h-2.1v-2.3c0-.6-.4-1-1-1s-1 .4-1 1v7.1c0 1.5.7 2.9 1.8 3.9.9.8 2 1.1 3.1 1.1.6 0 1-.4 1-1 .2-.6-.2-1-.8-1z"/><path d="M94.5 106.8c-.9-.7-2-1.1-3.2-1.1-1.5 0-2.9.7-3.9 1.8-1.8 2.2-1.5 5.3.7 7 .9.7 2 1.2 3.2 1.2.2 0 .5 0 .7-.1.2 0 .4-.1.7-.4.3-.4.3-1.1-.1-1.4-.2-.1-.4-.2-.6-.2H91.4c-.7 0-1.4-.3-1.9-.7-1.3-1.1-1.5-2.9-.4-4.2.6-.7 1.4-1.1 2.3-1.1.7 0 1.4.2 1.9.7.1.1.1.1.2.1l.1.1c.3.3.5.8.5 1.1v.1h-2.6c-.2 0-.5.1-.7.3-.4.4-.2 1 .1 1.3.2.1.4.2.6.2h3.9c.3 0 .6-.2.8-.4.2-.2.2-.4.2-.7-.1-1.4-.8-2.7-1.9-3.6zM45.1 104.6c.6 0 1-.5 1-1 0-.6-.4-1-1-1s-1 .5-1 1 .5 1 1 1zM51.7 105.6c-2.6 0-4.3 1.7-4.3 4.2v3.3c0 .3-.3.6-.6.6s-.6-.3-.6-.6v-6.6c0-.6-.4-1-1-1s-1 .4-1 1v6.6c0 1.5 1.2 2.6 2.6 2.6 1.4 0 2.6-1.1 2.6-2.5v-3.4c0-1.4.9-2.3 2.3-2.3s2.3.9 2.3 2.3v5c0 .6.4 1 1 1s1-.4 1-1v-4.9c.1-2.6-1.7-4.3-4.3-4.3zM71.3 106.8c-.9-.7-2-1.1-3.2-1.1-1.5 0-2.9.7-3.9 1.8-1.8 2.2-1.5 5.3.7 7 .9.7 2 1.2 3.2 1.2.2 0 .5 0 .7-.1.2 0 .5-.1.7-.4.3-.4.3-1.1-.1-1.4-.2-.1-.4-.2-.6-.2H68.2c-.7 0-1.4-.3-1.9-.7-1.3-1.1-1.5-2.9-.4-4.2.6-.7 1.4-1.1 2.3-1.1.7 0 1.4.2 1.9.7.1.1.1.1.2.1l.1.1c.3.3.5.8.5 1.1v.1h-2.6c-.2 0-.5.1-.7.3-.2.2-.2.4-.2.7 0 .2.1.4.3.6.2.1.4.2.6.2h3.9c.3 0 .6-.2.8-.4.2-.2.2-.4.2-.7-.2-1.4-.8-2.7-1.9-3.6z"/><path d="M62.2 113.7c-.6 0-1.3-.3-1.9-.7-.7-.6-1.1-1.4-1.1-2.3v-2.8h2c.5 0 .9-.4.9-1s-.4-1-.9-1h-2v-2.3c0-.6-.4-1-1-1s-1 .4-1 1v7.1c0 1.5.7 2.9 1.8 3.9.9.8 2 1.1 3.1 1.1.6 0 1-.4 1-1 .1-.6-.3-1-.9-1zM78.8 105.8c-1.5 0-2.9.7-3.9 1.8-.7.9-1.1 2-1.1 3.2v3.8c0 .6.4 1 1 1s1-.4 1-1v-3.9c0-.7.2-1.3.7-1.9.6-.7 1.4-1.1 2.3-1.1.2 0 .5-.1.7-.2.2-.2.3-.4.4-.7 0-.3 0-.5-.2-.8-.3-.1-.6-.2-.9-.2zM102 110.2l-.2-.2 3-2.5c.2-.2.3-.5.3-.8 0-.6-.4-1-1-1-.3 0-.6.1-.8.4l-3.7 3.1v-5.6c0-.6-.4-1-1-1s-1 .4-1 1v11.1c0 .6.4 1 1 1s1-.4 1-1V112c0-.1.1-.3.2-.4.2-.2.5-.2.7 0l3.7 3.7c.2.2.5.3.8.3.6 0 1-.4 1-1 0-.3-.1-.6-.4-.9l-3.6-3.5zM92.9 47.4c-.5-.5-1.4-.5-2 0l-20 20-7.2-7.2c-.5-.5-1.4-.5-2 0-.5.5-.5 1.4 0 2l8.2 8.2c.3.3.6.4 1 .4s.7-.1 1-.4l21-21c.6-.6.6-1.5 0-2zM106.2 94.8H43.8c-.8 0-1.4.6-1.4 1.4 0 .8.6 1.4 1.4 1.4h62.4c.8 0 1.4-.6 1.4-1.4 0-.8-.6-1.4-1.4-1.4z"/><path d="M58.5 88.1c.7.4 1.5.1 1.9-.5.4-.7.1-1.5-.5-1.9-9.9-5.5-16.1-16-16.1-27.3 0-17.2 14-31.2 31.2-31.2s31.2 14 31.2 31.2c0 11.3-6.2 21.8-16.1 27.3-.7.4-.9 1.2-.5 1.9.3.5.7.7 1.2.7.2 0 .5-.1.7-.2 10.8-6 17.5-17.4 17.5-29.7 0-18.7-15.2-34-34-34s-34 15.2-34 34c0 12.4 6.7 23.7 17.5 29.7z"/><path d="M57.6 55.9c-.7.7-.7 1.9 0 2.6.7.7 1.9.7 2.6 0 .7-.7.7-1.9 0-2.6-.7-.7-1.9-.7-2.6 0z"/></symbol><symbol viewBox="0 0 150 150" style="enable-background:new 0 0 150 150" xml:space="preserve" id="ATIC-icon-inspection" xmlns="http://www.w3.org/2000/svg"><path d="M147.5 74.4c0 40-32.5 72.5-72.5 72.5S2.5 114.5 2.5 74.4C2.5 34.4 35 1.9 75 1.9s72.5 32.5 72.5 72.5z" style="fill:#ffc700"/><path d="M64.1 48.5c2.7 0 5.3.7 7.6 2.1.7.4 1.5.2 1.9-.5.4-.7.2-1.5-.5-1.9-2.7-1.7-5.8-2.6-9-2.6-4.6 0-8.9 1.8-12.2 5-3.3 3.3-5.1 7.6-5.1 12.2C46.8 72.3 54.5 80 64 80s17.2-7.7 17.2-17.2c0-.8-.6-1.4-1.4-1.4-.8 0-1.4.6-1.4 1.4 0 8-6.5 14.4-14.4 14.4-8 0-14.4-6.5-14.4-14.5 0-3.9 1.5-7.5 4.2-10.2 2.8-2.5 6.4-4 10.3-4z"/><path d="M111.1 102.9 92 83.8c-.5-.5-1.4-.5-2 0-.5.5-.5 1.4 0 2l19 19.1c1.2 1.2 1.2 3.1 0 4.3-1.2 1.2-3.1 1.2-4.3 0L80.2 84.5C86.7 79.6 91 71.7 91 62.9c0-2.1-.2-4.2-.7-6.3-.2-.8-.9-1.2-1.7-1-.7.2-1.2.9-1 1.7.4 1.8.7 3.7.7 5.6C88.2 76.2 77.4 87 64.1 87 50.8 87 40 76.2 40 62.9s10.8-24.1 24.1-24.1c6 0 11.8 2.2 16.2 6.3.6.5 1.5.5 2-.1s.5-1.5-.1-2c-5-4.5-11.4-7-18.1-7-14.8 0-26.9 12.1-26.9 26.9 0 14.8 12.1 26.9 26.9 26.9 5 0 9.7-1.4 13.7-3.8l25.1 25.1.1.1c1.1 1.1 2.6 1.6 4.1 1.6 1.5 0 3-.6 4.1-1.7 2.2-2.2 2.2-5.9-.1-8.2z"/><path d="M87.4 51.2c.7-.7.7-1.9 0-2.6-.7-.7-1.9-.7-2.6 0-.7.7-.7 1.9 0 2.6.7.7 1.9.7 2.6 0z"/></symbol><symbol viewBox="0 0 150 150" style="enable-background:new 0 0 150 150" xml:space="preserve" id="ATIC-icon-testing" xmlns="http://www.w3.org/2000/svg"><path d="M147.5 74.4c0 40-32.5 72.5-72.5 72.5S2.5 114.5 2.5 74.4C2.5 34.4 35 1.9 75 1.9s72.5 32.5 72.5 72.5z" style="fill:#ffc700"/><path d="M68.9 112.7H40.8l24.7-43.6c.1-.2.2-.4.2-.7V43h18.6v25.3c0 .2.1.5.2.7l6.1 10.8c.4.7 1.2.9 1.9.5s.9-1.2.5-1.9L87.1 68V43h4.2c.8 0 1.4-.6 1.4-1.4 0-.8-.6-1.4-1.4-1.4H58.7c-.8 0-1.4.6-1.4 1.4 0 .8.6 1.4 1.4 1.4h4.2v25l-25.7 45.4c-.2.4-.2 1 0 1.4.2.4.7.7 1.2.7h30.5c.8 0 1.4-.6 1.4-1.4 0-.8-.6-1.4-1.4-1.4z"/><path d="m112.8 113.4-16-28.1c-.2-.4-.7-.7-1.2-.7H90c-.5 0-.9.2-1.2.6-.8 1.2-2.1 1.9-3.6 1.9s-2.8-.8-3.6-2c-.3-.4-.7-.7-1.2-.7s-.9.3-1.2.7c-.8 1.3-2.1 2-3.6 2s-2.8-.8-3.6-2c-.3-.4-.7-.7-1.2-.7s-.9.3-1.2.7c-.8 1.3-2.1 2-3.6 2s-2.8-.8-3.6-2c-.4-.7-1.3-.9-1.9-.5-.7.4-.9 1.3-.5 1.9 1.3 2.1 3.5 3.4 6 3.4 1.8 0 3.5-.7 4.8-1.9 1.3 1.2 3 1.9 4.8 1.9 1.8 0 3.5-.7 4.8-1.9 1.3 1.2 3 1.9 4.8 1.9 2.1 0 4.1-1 5.5-2.6h4.1l14.4 25.3H75.1c-.8 0-1.4.6-1.4 1.4 0 .8.6 1.4 1.4 1.4h36.5c.5 0 1-.3 1.2-.7.3-.4.3-.9 0-1.3zM65.4 101.6c.7-.7.7-1.9 0-2.6-.7-.7-1.9-.7-2.6 0-.7.7-.7 1.9 0 2.6.8.7 1.9.7 2.6 0zM74.3 67.5c-.7.7-.7 1.9 0 2.6.7.7 1.9.7 2.6 0 .7-.7.7-1.9 0-2.6-.7-.7-1.9-.7-2.6 0zM76.9 32.4c.7-.7.7-1.9 0-2.6-.7-.7-1.9-.7-2.6 0-.7.7-.7 1.9 0 2.6.7.7 1.9.7 2.6 0zM86.4 23.3c.7-.7.7-1.9 0-2.6-.7-.7-1.9-.7-2.6 0-.7.7-.7 1.9 0 2.6.8.7 1.9.7 2.6 0z"/></symbol><symbol id="ITK-NTA-logo" viewBox="0 0 403.741 323.521" style="enable-background:new 0 0 403.74094 323.52051" xml:space="preserve" xmlns="http://www.w3.org/2000/svg"><style>.afst0{fill:#fec700}.afst1{fill:#161412}</style><path class="afst1" d="M43.958 27.7c7.878 0 13.175 5.29 13.175 13.172V68.07c0 3.357 2.337 5.698 5.695 5.698 3.342 0 5.687-2.341 5.687-5.698V40.209c0-13.823-10.098-23.474-24.558-23.474h-.988c-14.458 0-24.557 9.65-24.557 23.474V58.91l.006.159a3.51 3.51 0 0 1-3.51 3.363 3.528 3.528 0 0 1-3.512-3.248h-.013V21.887c0-3.35-2.338-5.695-5.691-5.695C2.338 16.192 0 18.537 0 21.887V58.91c0 8.215 6.667 14.895 14.868 14.895 7.908 0 14.44-6.173 14.874-14.078a6.32 6.32 0 0 0 .056-.817V40.872c0-7.882 5.293-13.172 13.171-13.172h.989z"/><path class="afst0" d="M5.823 11.36a5.669 5.669 0 0 0 5.672-5.67 5.67 5.67 0 1 0-11.34 0c0 3.13 2.54 5.67 5.668 5.67"/><path class="afst1" d="m196.04 18.496-.006.021v-.02c-8.463 0-16.423 3.798-21.844 10.42-4.183 5.1-6.469 11.502-6.456 18.014v21.663c0 3.353 2.365 5.698 5.744 5.698 3.42 0 5.718-2.292 5.718-5.698V46.691c.033-3.854 1.377-7.602 3.805-10.564 3.208-3.915 7.967-6.162 13.06-6.162v-.006h.164c1.37 0 2.707-.474 3.757-1.33 1.166-.96 1.914-2.274 2.098-3.7.191-1.518-.256-2.997-1.304-4.272-1.462-1.784-3.376-2.16-4.736-2.16M102.322 62.955c-3.604-.026-7.379-1.498-10.616-4.156a16.82 16.82 0 0 1-6.196-13.185V29.932H96.98c3.05 0 5.52-2.463 5.52-5.52a5.536 5.536 0 0 0-5.54-5.536l-11.449.007V5.71c0-3.353-2.377-5.698-5.723-5.698-3.354 0-5.705 2.345-5.705 5.698v39.906c.013 8.537 3.748 16.53 10.408 21.989 5.237 4.285 11.13 6.462 17.516 6.462h.066c3.353 0 5.69-2.365 5.69-5.745 0-3.214-2.166-5.362-5.44-5.368M346.646 63.851l-21.915-21.91 16.672-14.277c1.193-1.078 1.983-2.876 1.983-4.467 0-3.356-2.342-5.688-5.69-5.688-1.633 0-3.433.738-4.797 1.982L312.287 37.16V5.7c0-3.358-2.345-5.699-5.698-5.699-3.352 0-5.692 2.341-5.692 5.698v62.948c0 3.354 2.34 5.695 5.692 5.695 3.353 0 5.698-2.341 5.698-5.695V53.233c0-.8.333-1.588.975-2.16 1.206-1.072 3.004-.924 4.144.242l21.076 21.047c1.077 1.185 2.869 1.98 4.463 1.98 3.352 0 5.695-2.342 5.695-5.696 0-1.633-.747-3.429-1.994-4.795M233.977 62.955c-3.606-.026-7.381-1.498-10.62-4.156a16.818 16.818 0 0 1-6.194-13.185V29.932h11.452c3.063 0 5.286-2.325 5.286-5.526 0-3.202-2.223-5.523-5.286-5.523h-11.452V5.71c0-3.353-2.379-5.698-5.724-5.698-3.35 0-5.706 2.345-5.706 5.698v39.906c.01 8.537 3.749 16.53 10.412 21.989 5.23 4.285 11.125 6.462 17.512 6.462h.07c3.346 0 5.691-2.365 5.691-5.745 0-3.214-2.164-5.362-5.441-5.368"/><path class="afst1" d="M284.673 23.964c-5.157-4.228-11.356-6.455-17.905-6.455-8.457 0-16.415 3.795-21.843 10.409-10.03 12.258-8.293 29.712 3.96 39.747 5.111 4.19 11.53 6.495 18.084 6.495 1.407 0 2.817-.108 4.2-.312 1.054-.162 2.546-.65 3.702-2.066 1.957-2.38 1.595-6.054-.793-8.004-.9-.737-2.013-1.106-3.317-1.106-.35 0-.712.026-1.08.086-.818.138-1.67.184-2.524.184-9.98 0-17.535-7.678-17.535-17.13 0-9.463 7.665-17.127 17.123-17.127 7.705 0 14.22 5.088 16.37 12.09h-16.392a5.094 5.094 0 0 0-5.102 5.093c0 2.819 2.2 5.095 5.016 5.095h21.808c2.364 0 4.297-.998 5.391-2.328.916-1.12 1.364-2.517 1.29-4.033-.398-8.002-4.208-15.519-10.453-20.638M153.19 23.964c-5.172-4.228-11.364-6.455-17.91-6.455-8.453 0-16.42 3.795-21.84 10.409-10.041 12.258-8.303 29.712 3.954 39.747 5.118 4.19 11.534 6.495 18.083 6.495 1.405 0 2.818-.108 4.201-.312 1.054-.162 2.546-.65 3.71-2.066 1.952-2.38 1.587-6.054-.801-8.004-.9-.737-2.013-1.106-3.317-1.106-.35 0-.718.026-1.084.086-.813.138-1.663.184-2.519.184-9.98 0-17.537-7.678-17.537-17.13 0-9.463 7.665-17.127 17.124-17.127 7.705 0 14.22 5.088 16.371 12.09h-16.4a5.093 5.093 0 0 0-5.095 5.093c0 2.819 2.197 5.095 5.014 5.095h21.814c2.358 0 4.294-.998 5.384-2.328.92-1.12 1.364-2.517 1.295-4.033-.402-8.002-4.21-15.519-10.447-20.638"/><path class="afst0" d="M403.74 243.834c0-.49-.027-.97-.036-1.457v-59.818c0-9.112-7.387-16.5-16.5-16.5-8.064 0-14.767 5.792-16.203 13.44-13.178-9.641-29.404-15.351-46.945-15.351-43.94 0-79.689 35.747-79.689 79.686 0 43.94 35.748 79.687 79.689 79.687 17.54 0 33.767-5.71 46.944-15.352 1.436 7.649 8.139 13.44 16.205 13.44 9.112 0 16.499-7.386 16.499-16.499v-59.819c.009-.487.037-.969.037-1.457zm-79.684 46.69c-25.746 0-46.69-20.946-46.69-46.69 0-25.744 20.944-46.688 46.69-46.688 25.254 0 45.875 20.16 46.65 45.23v2.914c-.775 25.072-21.396 45.234-46.65 45.234zM69.58 166.059c-14.175 0-27.364 3.776-38.347 10.237-2.841-4.968-8.183-8.324-14.317-8.324-9.113 0-16.499 7.387-16.499 16.499v122.551c0 9.113 7.386 16.499 16.499 16.499 9.112 0 16.498-7.386 16.498-16.499V226.9c0-15.352 16.225-27.843 36.166-27.843 19.941 0 36.166 12.49 36.166 27.843v80.122c0 9.113 7.386 16.499 16.499 16.499 9.112 0 16.498-7.386 16.498-16.499V226.9c0-33.548-31.025-60.841-69.163-60.841z"/><path class="afst0" d="M237.19 290.524c-25.744 0-46.69-20.945-46.69-46.689v-46.687h31.197c9.113 0 16.499-7.388 16.499-16.5s-7.386-16.499-16.499-16.499H190.5v-34.675c0-9.111-7.386-16.499-16.499-16.499-9.112 0-16.498 7.388-16.498 16.5v114.36c0 43.939 35.746 79.685 79.687 79.685 9.113 0 16.499-7.385 16.499-16.498 0-9.113-7.386-16.498-16.499-16.498z"/></symbol><symbol viewBox="0 0 403.741 323.521" style="enable-background:new 0 0 403.74094 323.52051" xml:space="preserve" id="ITK-NTA-logo-variable" xmlns="http://www.w3.org/2000/svg"><path fill="var(--logo-color-2)" d="M43.958 27.7c7.878 0 13.175 5.29 13.175 13.172V68.07c0 3.357 2.337 5.698 5.695 5.698 3.342 0 5.687-2.341 5.687-5.698V40.209c0-13.823-10.098-23.474-24.558-23.474h-.988c-14.458 0-24.557 9.65-24.557 23.474V58.91l.006.159a3.51 3.51 0 0 1-3.51 3.363 3.528 3.528 0 0 1-3.512-3.248h-.013V21.887c0-3.35-2.338-5.695-5.691-5.695C2.338 16.192 0 18.537 0 21.887V58.91c0 8.215 6.667 14.895 14.868 14.895 7.908 0 14.44-6.173 14.874-14.078a6.32 6.32 0 0 0 .056-.817V40.872c0-7.882 5.293-13.172 13.171-13.172h.989z"/><path fill="var(--logo-color-1)" d="M5.823 11.36a5.669 5.669 0 0 0 5.672-5.67 5.67 5.67 0 1 0-11.34 0c0 3.13 2.54 5.67 5.668 5.67"/><path fill="var(--logo-color-2)" d="m196.04 18.496-.006.021v-.02c-8.463 0-16.423 3.798-21.844 10.42-4.183 5.1-6.469 11.502-6.456 18.014v21.663c0 3.353 2.365 5.698 5.744 5.698 3.42 0 5.718-2.292 5.718-5.698V46.691c.033-3.854 1.377-7.602 3.805-10.564 3.208-3.915 7.967-6.162 13.06-6.162v-.006h.164c1.37 0 2.707-.474 3.757-1.33 1.166-.96 1.914-2.274 2.098-3.7.191-1.518-.256-2.997-1.304-4.272-1.462-1.784-3.376-2.16-4.736-2.16M102.322 62.955c-3.604-.026-7.379-1.498-10.616-4.156a16.82 16.82 0 0 1-6.196-13.185V29.932H96.98c3.05 0 5.52-2.463 5.52-5.52a5.536 5.536 0 0 0-5.54-5.536l-11.449.007V5.71c0-3.353-2.377-5.698-5.723-5.698-3.354 0-5.705 2.345-5.705 5.698v39.906c.013 8.537 3.748 16.53 10.408 21.989 5.237 4.285 11.13 6.462 17.516 6.462h.066c3.353 0 5.69-2.365 5.69-5.745 0-3.214-2.166-5.362-5.44-5.368M346.646 63.851l-21.915-21.91 16.672-14.277c1.193-1.078 1.983-2.876 1.983-4.467 0-3.356-2.342-5.688-5.69-5.688-1.633 0-3.433.738-4.797 1.982L312.287 37.16V5.7c0-3.358-2.345-5.699-5.698-5.699-3.352 0-5.692 2.341-5.692 5.698v62.948c0 3.354 2.34 5.695 5.692 5.695 3.353 0 5.698-2.341 5.698-5.695V53.233c0-.8.333-1.588.975-2.16 1.206-1.072 3.004-.924 4.144.242l21.076 21.047c1.077 1.185 2.869 1.98 4.463 1.98 3.352 0 5.695-2.342 5.695-5.696 0-1.633-.747-3.429-1.994-4.795M233.977 62.955c-3.606-.026-7.381-1.498-10.62-4.156a16.818 16.818 0 0 1-6.194-13.185V29.932h11.452c3.063 0 5.286-2.325 5.286-5.526 0-3.202-2.223-5.523-5.286-5.523h-11.452V5.71c0-3.353-2.379-5.698-5.724-5.698-3.35 0-5.706 2.345-5.706 5.698v39.906c.01 8.537 3.749 16.53 10.412 21.989 5.23 4.285 11.125 6.462 17.512 6.462h.07c3.346 0 5.691-2.365 5.691-5.745 0-3.214-2.164-5.362-5.441-5.368"/><path fill="var(--logo-color-2)" d="M284.673 23.964c-5.157-4.228-11.356-6.455-17.905-6.455-8.457 0-16.415 3.795-21.843 10.409-10.03 12.258-8.293 29.712 3.96 39.747 5.111 4.19 11.53 6.495 18.084 6.495 1.407 0 2.817-.108 4.2-.312 1.054-.162 2.546-.65 3.702-2.066 1.957-2.38 1.595-6.054-.793-8.004-.9-.737-2.013-1.106-3.317-1.106-.35 0-.712.026-1.08.086-.818.138-1.67.184-2.524.184-9.98 0-17.535-7.678-17.535-17.13 0-9.463 7.665-17.127 17.123-17.127 7.705 0 14.22 5.088 16.37 12.09h-16.392a5.094 5.094 0 0 0-5.102 5.093c0 2.819 2.2 5.095 5.016 5.095h21.808c2.364 0 4.297-.998 5.391-2.328.916-1.12 1.364-2.517 1.29-4.033-.398-8.002-4.208-15.519-10.453-20.638M153.19 23.964c-5.172-4.228-11.364-6.455-17.91-6.455-8.453 0-16.42 3.795-21.84 10.409-10.041 12.258-8.303 29.712 3.954 39.747 5.118 4.19 11.534 6.495 18.083 6.495 1.405 0 2.818-.108 4.201-.312 1.054-.162 2.546-.65 3.71-2.066 1.952-2.38 1.587-6.054-.801-8.004-.9-.737-2.013-1.106-3.317-1.106-.35 0-.718.026-1.084.086-.813.138-1.663.184-2.519.184-9.98 0-17.537-7.678-17.537-17.13 0-9.463 7.665-17.127 17.124-17.127 7.705 0 14.22 5.088 16.371 12.09h-16.4a5.093 5.093 0 0 0-5.095 5.093c0 2.819 2.197 5.095 5.014 5.095h21.814c2.358 0 4.294-.998 5.384-2.328.92-1.12 1.364-2.517 1.295-4.033-.402-8.002-4.21-15.519-10.447-20.638"/><g fill="var(--logo-color-1)"><path d="M403.74 243.834c0-.49-.027-.97-.036-1.457v-59.818c0-9.112-7.387-16.5-16.5-16.5-8.064 0-14.767 5.792-16.203 13.44-13.178-9.641-29.404-15.351-46.945-15.351-43.94 0-79.689 35.747-79.689 79.686 0 43.94 35.748 79.687 79.689 79.687 17.54 0 33.767-5.71 46.944-15.352 1.436 7.649 8.139 13.44 16.205 13.44 9.112 0 16.499-7.386 16.499-16.499v-59.819c.009-.487.037-.969.037-1.457zm-79.684 46.69c-25.746 0-46.69-20.946-46.69-46.69 0-25.744 20.944-46.688 46.69-46.688 25.254 0 45.875 20.16 46.65 45.23v2.914c-.775 25.072-21.396 45.234-46.65 45.234zM69.58 166.059c-14.175 0-27.364 3.776-38.347 10.237-2.841-4.968-8.183-8.324-14.317-8.324-9.113 0-16.499 7.387-16.499 16.499v122.551c0 9.113 7.386 16.499 16.499 16.499 9.112 0 16.498-7.386 16.498-16.499V226.9c0-15.352 16.225-27.843 36.166-27.843 19.941 0 36.166 12.49 36.166 27.843v80.122c0 9.113 7.386 16.499 16.499 16.499 9.112 0 16.498-7.386 16.498-16.499V226.9c0-33.548-31.025-60.841-69.163-60.841z"/><path d="M237.19 290.524c-25.744 0-46.69-20.945-46.69-46.689v-46.687h31.197c9.113 0 16.499-7.388 16.499-16.5s-7.386-16.499-16.499-16.499H190.5v-34.675c0-9.111-7.386-16.499-16.499-16.499-9.112 0-16.498 7.388-16.498 16.5v114.36c0 43.939 35.746 79.685 79.687 79.685 9.113 0 16.499-7.385 16.499-16.498 0-9.113-7.386-16.498-16.499-16.498z"/></g></symbol><symbol id="ITK-catalyst-logo" viewBox="0 0 1030.529 408.931" style="enable-background:new 0 0 1030.52905 408.93069" xml:space="preserve" xmlns="http://www.w3.org/2000/svg"><style>.ahst0{fill:#fec700}.ahst1{fill:#161412}</style><path class="ahst1" d="M56.958 27.7c7.878 0 13.175 5.29 13.175 13.172V68.07c0 3.357 2.337 5.698 5.695 5.698 3.342 0 5.687-2.341 5.687-5.698V40.209c0-13.823-10.098-23.474-24.557-23.474h-.989c-14.458 0-24.557 9.65-24.557 23.474V58.91l.007.159a3.51 3.51 0 0 1-3.512 3.363 3.528 3.528 0 0 1-3.51-3.248h-.014V21.887c0-3.35-2.338-5.695-5.691-5.695-3.354 0-5.692 2.345-5.692 5.695V58.91c0 8.215 6.667 14.895 14.868 14.895 7.908 0 14.44-6.173 14.874-14.078a6.32 6.32 0 0 0 .056-.817V40.872c0-7.882 5.293-13.172 13.171-13.172h.989z"/><path class="ahst0" d="M18.823 11.36a5.669 5.669 0 0 0 5.672-5.67 5.67 5.67 0 1 0-11.34 0c0 3.13 2.54 5.67 5.668 5.67"/><path class="ahst1" d="m209.04 18.496-.006.021v-.02c-8.463 0-16.423 3.798-21.844 10.42-4.183 5.1-6.469 11.502-6.456 18.014v21.663c0 3.353 2.365 5.698 5.744 5.698 3.42 0 5.718-2.292 5.718-5.698V46.691c.033-3.854 1.377-7.602 3.805-10.564 3.208-3.915 7.967-6.162 13.06-6.162v-.006h.164c1.37 0 2.707-.474 3.757-1.33 1.166-.96 1.914-2.274 2.098-3.7.191-1.518-.256-2.997-1.304-4.272-1.462-1.784-3.376-2.16-4.736-2.16M115.322 62.955c-3.604-.026-7.379-1.498-10.616-4.156a16.82 16.82 0 0 1-6.196-13.185V29.932h11.469c3.05 0 5.52-2.463 5.52-5.52a5.536 5.536 0 0 0-5.54-5.536l-11.449.007V5.71c0-3.353-2.377-5.698-5.723-5.698-3.354 0-5.705 2.345-5.705 5.698v39.906c.013 8.537 3.748 16.53 10.408 21.989 5.237 4.285 11.13 6.462 17.516 6.462h.066c3.353 0 5.69-2.365 5.69-5.745 0-3.214-2.166-5.362-5.44-5.368M359.646 63.851l-21.915-21.91 16.672-14.277c1.193-1.078 1.983-2.876 1.983-4.467 0-3.356-2.342-5.688-5.69-5.688-1.633 0-3.433.738-4.797 1.982L325.287 37.16V5.7c0-3.358-2.345-5.699-5.698-5.699-3.352 0-5.692 2.341-5.692 5.698v62.948c0 3.354 2.34 5.695 5.692 5.695 3.353 0 5.698-2.341 5.698-5.695V53.233c0-.8.333-1.588.975-2.16 1.206-1.072 3.004-.924 4.144.242l21.076 21.047c1.077 1.185 2.869 1.98 4.463 1.98 3.352 0 5.695-2.342 5.695-5.696 0-1.633-.747-3.429-1.994-4.795M246.977 62.955c-3.606-.026-7.381-1.498-10.62-4.156a16.818 16.818 0 0 1-6.194-13.185V29.932h11.452c3.063 0 5.286-2.325 5.286-5.526 0-3.202-2.223-5.523-5.286-5.523h-11.452V5.71c0-3.353-2.379-5.698-5.724-5.698-3.35 0-5.706 2.345-5.706 5.698v39.906c.01 8.537 3.749 16.53 10.412 21.989 5.23 4.285 11.125 6.462 17.512 6.462h.07c3.346 0 5.691-2.365 5.691-5.745 0-3.214-2.164-5.362-5.441-5.368"/><path class="ahst1" d="M297.673 23.964c-5.157-4.228-11.356-6.455-17.905-6.455-8.457 0-16.415 3.795-21.843 10.409-10.03 12.258-8.293 29.712 3.96 39.747 5.111 4.19 11.53 6.495 18.084 6.495 1.407 0 2.817-.108 4.2-.312 1.054-.162 2.546-.65 3.702-2.066 1.957-2.38 1.595-6.054-.793-8.004-.9-.737-2.013-1.106-3.317-1.106-.35 0-.712.026-1.08.086-.818.138-1.67.184-2.524.184-9.98 0-17.535-7.678-17.535-17.13 0-9.463 7.665-17.127 17.123-17.127 7.705 0 14.22 5.088 16.37 12.09h-16.392a5.094 5.094 0 0 0-5.102 5.093c0 2.819 2.2 5.095 5.016 5.095h21.808c2.364 0 4.297-.998 5.391-2.328.916-1.12 1.364-2.517 1.29-4.033-.398-8.002-4.208-15.519-10.453-20.638M166.19 23.964c-5.172-4.228-11.364-6.455-17.91-6.455-8.453 0-16.42 3.795-21.84 10.409-10.041 12.258-8.303 29.712 3.954 39.747 5.118 4.19 11.534 6.495 18.083 6.495 1.405 0 2.818-.108 4.201-.312 1.054-.162 2.546-.65 3.71-2.066 1.952-2.38 1.587-6.054-.801-8.004-.9-.737-2.013-1.106-3.317-1.106-.35 0-.718.026-1.084.086-.813.138-1.663.184-2.519.184-9.98 0-17.537-7.678-17.537-17.13 0-9.463 7.665-17.127 17.124-17.127 7.705 0 14.22 5.088 16.371 12.09h-16.4a5.093 5.093 0 0 0-5.095 5.093c0 2.819 2.197 5.095 5.014 5.095h21.814c2.358 0 4.294-.998 5.384-2.328.92-1.12 1.364-2.517 1.295-4.033-.402-8.002-4.21-15.519-10.447-20.638"/><path class="ahst0" d="M80.109 324.26C35.937 324.26 0 288.323 0 244.151c0-44.17 35.937-80.106 80.109-80.106 22.28 0 43.734 9.392 58.858 25.767 6.215 6.73 5.798 17.223-.931 23.438-6.73 6.212-17.224 5.798-23.438-.931-8.994-9.739-21.243-15.102-34.49-15.102-25.88 0-46.936 21.055-46.936 46.934 0 25.88 21.056 46.937 46.937 46.937 13.245 0 25.492-5.364 34.486-15.1 6.215-6.73 16.71-7.145 23.438-.93 6.729 6.216 7.145 16.708.93 23.438-15.124 16.372-36.575 25.762-58.854 25.762zM305.936 244.152c0-.491-.028-.975-.037-1.464v-60.134c0-9.16-7.426-16.586-16.586-16.586-8.108 0-14.846 5.822-16.29 13.51-13.246-9.692-29.559-15.432-47.192-15.432-44.172 0-80.11 35.936-80.11 80.106 0 44.172 35.938 80.107 80.11 80.107 17.633 0 33.946-5.74 47.191-15.433 1.444 7.69 8.182 13.511 16.29 13.511 9.16 0 16.587-7.424 16.587-16.585v-60.134c.009-.49.037-.974.037-1.466zm-80.105 46.937c-25.882 0-46.937-21.056-46.937-46.937 0-25.88 21.055-46.934 46.937-46.934 25.387 0 46.117 20.267 46.896 45.47v2.929c-.779 25.204-21.51 45.472-46.896 45.472zM597.782 322.337c-9.161 0-16.586-7.424-16.586-16.585V129.188c0-9.16 7.425-16.586 16.586-16.586 9.16 0 16.585 7.426 16.585 16.586v176.564c0 9.16-7.425 16.585-16.585 16.585zM401.64 291.087c-25.88 0-46.937-21.055-46.937-46.935v-46.934h31.362c9.16 0 16.585-7.426 16.585-16.586s-7.425-16.586-16.585-16.586h-31.362v-34.858c0-9.16-7.425-16.586-16.586-16.586-9.16 0-16.585 7.426-16.585 16.586v114.964c0 44.17 35.935 80.106 80.108 80.106 9.16 0 16.585-7.425 16.585-16.586 0-9.16-7.424-16.585-16.585-16.585zM769.29 327.496c.007-.2.03-.393.03-.594V182.554c0-9.16-7.425-16.586-16.586-16.586s-16.585 7.426-16.585 16.586V263.1c0 15.432-16.31 27.99-36.357 27.99s-36.357-12.558-36.357-27.99v-80.546c0-9.16-7.425-16.586-16.586-16.586s-16.585 7.426-16.585 16.586V263.1c0 33.725 31.189 61.16 69.528 61.16 13.32 0 25.772-3.317 36.357-9.054v11.697c0 .45.032.89.068 1.33-.008.198-.031.392-.031.592 0 25.88-21.055 46.936-46.934 46.936-9.16 0-16.585 7.425-16.585 16.585 0 9.161 7.424 16.586 16.585 16.586 44.17 0 80.105-35.935 80.105-80.107 0-.449-.032-.889-.066-1.328zM876.64 225.643h-47.737l-.016.001c-7.83-.009-14.2-6.381-14.2-14.213 0-7.837 6.377-14.214 14.216-14.214h62.536c9.161 0 16.586-7.426 16.586-16.586s-7.425-16.586-16.586-16.586h-62.536c-26.13 0-47.387 21.257-47.387 47.386s21.258 47.386 47.387 47.386l.032-.001h47.705c8.367 0 15.176 6.808 15.176 15.175s-6.809 15.176-15.176 15.176h-71.576c-9.16 0-16.585 7.424-16.585 16.585s7.424 16.585 16.585 16.585h71.576c26.66 0 48.347-21.687 48.347-48.346 0-26.66-21.687-48.348-48.347-48.348z"/><path class="ahst0" d="M564.07 244.152c0-.491-.028-.975-.037-1.464v-60.134c0-9.16-7.426-16.586-16.586-16.586-8.108 0-14.846 5.822-16.29 13.51-13.247-9.692-29.559-15.432-47.192-15.432-44.172 0-80.11 35.936-80.11 80.106 0 44.172 35.938 80.107 80.11 80.107 17.633 0 33.945-5.74 47.191-15.433 1.444 7.69 8.182 13.511 16.29 13.511 9.16 0 16.587-7.424 16.587-16.585v-60.134c.009-.49.037-.974.037-1.466zm-80.105 46.937c-25.882 0-46.937-21.056-46.937-46.937 0-25.88 21.055-46.934 46.937-46.934 25.387 0 46.117 20.267 46.895 45.47v2.929c-.778 25.204-21.508 45.472-46.895 45.472zM1013.943 291.087c-25.88 0-46.937-21.055-46.937-46.935v-46.934h31.363c9.16 0 16.585-7.426 16.585-16.586s-7.425-16.586-16.585-16.586h-31.363v-34.858c0-9.16-7.424-16.586-16.585-16.586-9.16 0-16.585 7.426-16.585 16.586v114.964c0 44.17 35.935 80.106 80.107 80.106 9.161 0 16.586-7.425 16.586-16.586 0-9.16-7.425-16.585-16.586-16.585z"/></symbol><symbol viewBox="0 0 1030.529 408.931" style="enable-background:new 0 0 1030.52905 408.93069" xml:space="preserve" id="ITK-catalyst-logo-variable" xmlns="http://www.w3.org/2000/svg"><path fill="var(--logo-color-2)" d="M56.958 27.7c7.878 0 13.175 5.29 13.175 13.172V68.07c0 3.357 2.337 5.698 5.695 5.698 3.342 0 5.687-2.341 5.687-5.698V40.209c0-13.823-10.098-23.474-24.557-23.474h-.989c-14.458 0-24.557 9.65-24.557 23.474V58.91l.007.159a3.51 3.51 0 0 1-3.512 3.363 3.528 3.528 0 0 1-3.51-3.248h-.014V21.887c0-3.35-2.338-5.695-5.691-5.695-3.354 0-5.692 2.345-5.692 5.695V58.91c0 8.215 6.667 14.895 14.868 14.895 7.908 0 14.44-6.173 14.874-14.078a6.32 6.32 0 0 0 .056-.817V40.872c0-7.882 5.293-13.172 13.171-13.172h.989z"/><path fill="var(--logo-color-1)" d="M18.823 11.36a5.669 5.669 0 0 0 5.672-5.67 5.67 5.67 0 1 0-11.34 0c0 3.13 2.54 5.67 5.668 5.67"/><path fill="var(--logo-color-2)" d="m209.04 18.496-.006.021v-.02c-8.463 0-16.423 3.798-21.844 10.42-4.183 5.1-6.469 11.502-6.456 18.014v21.663c0 3.353 2.365 5.698 5.744 5.698 3.42 0 5.718-2.292 5.718-5.698V46.691c.033-3.854 1.377-7.602 3.805-10.564 3.208-3.915 7.967-6.162 13.06-6.162v-.006h.164c1.37 0 2.707-.474 3.757-1.33 1.166-.96 1.914-2.274 2.098-3.7.191-1.518-.256-2.997-1.304-4.272-1.462-1.784-3.376-2.16-4.736-2.16M115.322 62.955c-3.604-.026-7.379-1.498-10.616-4.156a16.82 16.82 0 0 1-6.196-13.185V29.932h11.469c3.05 0 5.52-2.463 5.52-5.52a5.536 5.536 0 0 0-5.54-5.536l-11.449.007V5.71c0-3.353-2.377-5.698-5.723-5.698-3.354 0-5.705 2.345-5.705 5.698v39.906c.013 8.537 3.748 16.53 10.408 21.989 5.237 4.285 11.13 6.462 17.516 6.462h.066c3.353 0 5.69-2.365 5.69-5.745 0-3.214-2.166-5.362-5.44-5.368M359.646 63.851l-21.915-21.91 16.672-14.277c1.193-1.078 1.983-2.876 1.983-4.467 0-3.356-2.342-5.688-5.69-5.688-1.633 0-3.433.738-4.797 1.982L325.287 37.16V5.7c0-3.358-2.345-5.699-5.698-5.699-3.352 0-5.692 2.341-5.692 5.698v62.948c0 3.354 2.34 5.695 5.692 5.695 3.353 0 5.698-2.341 5.698-5.695V53.233c0-.8.333-1.588.975-2.16 1.206-1.072 3.004-.924 4.144.242l21.076 21.047c1.077 1.185 2.869 1.98 4.463 1.98 3.352 0 5.695-2.342 5.695-5.696 0-1.633-.747-3.429-1.994-4.795M246.977 62.955c-3.606-.026-7.381-1.498-10.62-4.156a16.818 16.818 0 0 1-6.194-13.185V29.932h11.452c3.063 0 5.286-2.325 5.286-5.526 0-3.202-2.223-5.523-5.286-5.523h-11.452V5.71c0-3.353-2.379-5.698-5.724-5.698-3.35 0-5.706 2.345-5.706 5.698v39.906c.01 8.537 3.749 16.53 10.412 21.989 5.23 4.285 11.125 6.462 17.512 6.462h.07c3.346 0 5.691-2.365 5.691-5.745 0-3.214-2.164-5.362-5.441-5.368"/><path fill="var(--logo-color-2)" d="M297.673 23.964c-5.157-4.228-11.356-6.455-17.905-6.455-8.457 0-16.415 3.795-21.843 10.409-10.03 12.258-8.293 29.712 3.96 39.747 5.111 4.19 11.53 6.495 18.084 6.495 1.407 0 2.817-.108 4.2-.312 1.054-.162 2.546-.65 3.702-2.066 1.957-2.38 1.595-6.054-.793-8.004-.9-.737-2.013-1.106-3.317-1.106-.35 0-.712.026-1.08.086-.818.138-1.67.184-2.524.184-9.98 0-17.535-7.678-17.535-17.13 0-9.463 7.665-17.127 17.123-17.127 7.705 0 14.22 5.088 16.37 12.09h-16.392a5.094 5.094 0 0 0-5.102 5.093c0 2.819 2.2 5.095 5.016 5.095h21.808c2.364 0 4.297-.998 5.391-2.328.916-1.12 1.364-2.517 1.29-4.033-.398-8.002-4.208-15.519-10.453-20.638M166.19 23.964c-5.172-4.228-11.364-6.455-17.91-6.455-8.453 0-16.42 3.795-21.84 10.409-10.041 12.258-8.303 29.712 3.954 39.747 5.118 4.19 11.534 6.495 18.083 6.495 1.405 0 2.818-.108 4.201-.312 1.054-.162 2.546-.65 3.71-2.066 1.952-2.38 1.587-6.054-.801-8.004-.9-.737-2.013-1.106-3.317-1.106-.35 0-.718.026-1.084.086-.813.138-1.663.184-2.519.184-9.98 0-17.537-7.678-17.537-17.13 0-9.463 7.665-17.127 17.124-17.127 7.705 0 14.22 5.088 16.371 12.09h-16.4a5.093 5.093 0 0 0-5.095 5.093c0 2.819 2.197 5.095 5.014 5.095h21.814c2.358 0 4.294-.998 5.384-2.328.92-1.12 1.364-2.517 1.295-4.033-.402-8.002-4.21-15.519-10.447-20.638"/><path fill="var(--logo-color-1)" d="M80.109 324.26C35.937 324.26 0 288.323 0 244.151c0-44.17 35.937-80.106 80.109-80.106 22.28 0 43.734 9.392 58.858 25.767 6.215 6.73 5.798 17.223-.931 23.438-6.73 6.212-17.224 5.798-23.438-.931-8.994-9.739-21.243-15.102-34.49-15.102-25.88 0-46.936 21.055-46.936 46.934 0 25.88 21.056 46.937 46.937 46.937 13.245 0 25.492-5.364 34.486-15.1 6.215-6.73 16.71-7.145 23.438-.93 6.729 6.216 7.145 16.708.93 23.438-15.124 16.372-36.575 25.762-58.854 25.762zM305.936 244.152c0-.491-.028-.975-.037-1.464v-60.134c0-9.16-7.426-16.586-16.586-16.586-8.108 0-14.846 5.822-16.29 13.51-13.246-9.692-29.559-15.432-47.192-15.432-44.172 0-80.11 35.936-80.11 80.106 0 44.172 35.938 80.107 80.11 80.107 17.633 0 33.946-5.74 47.191-15.433 1.444 7.69 8.182 13.511 16.29 13.511 9.16 0 16.587-7.424 16.587-16.585v-60.134c.009-.49.037-.974.037-1.466zm-80.105 46.937c-25.882 0-46.937-21.056-46.937-46.937 0-25.88 21.055-46.934 46.937-46.934 25.387 0 46.117 20.267 46.896 45.47v2.929c-.779 25.204-21.51 45.472-46.896 45.472zM597.782 322.337c-9.161 0-16.586-7.424-16.586-16.585V129.188c0-9.16 7.425-16.586 16.586-16.586 9.16 0 16.585 7.426 16.585 16.586v176.564c0 9.16-7.425 16.585-16.585 16.585zM401.64 291.087c-25.88 0-46.937-21.055-46.937-46.935v-46.934h31.362c9.16 0 16.585-7.426 16.585-16.586s-7.425-16.586-16.585-16.586h-31.362v-34.858c0-9.16-7.425-16.586-16.586-16.586-9.16 0-16.585 7.426-16.585 16.586v114.964c0 44.17 35.935 80.106 80.108 80.106 9.16 0 16.585-7.425 16.585-16.586 0-9.16-7.424-16.585-16.585-16.585zM769.29 327.496c.007-.2.03-.393.03-.594V182.554c0-9.16-7.425-16.586-16.586-16.586s-16.585 7.426-16.585 16.586V263.1c0 15.432-16.31 27.99-36.357 27.99s-36.357-12.558-36.357-27.99v-80.546c0-9.16-7.425-16.586-16.586-16.586s-16.585 7.426-16.585 16.586V263.1c0 33.725 31.189 61.16 69.528 61.16 13.32 0 25.772-3.317 36.357-9.054v11.697c0 .45.032.89.068 1.33-.008.198-.031.392-.031.592 0 25.88-21.055 46.936-46.934 46.936-9.16 0-16.585 7.425-16.585 16.585 0 9.161 7.424 16.586 16.585 16.586 44.17 0 80.105-35.935 80.105-80.107 0-.449-.032-.889-.066-1.328zM876.64 225.643h-47.737l-.016.001c-7.83-.009-14.2-6.381-14.2-14.213 0-7.837 6.377-14.214 14.216-14.214h62.536c9.161 0 16.586-7.426 16.586-16.586s-7.425-16.586-16.586-16.586h-62.536c-26.13 0-47.387 21.257-47.387 47.386s21.258 47.386 47.387 47.386l.032-.001h47.705c8.367 0 15.176 6.808 15.176 15.175s-6.809 15.176-15.176 15.176h-71.576c-9.16 0-16.585 7.424-16.585 16.585s7.424 16.585 16.585 16.585h71.576c26.66 0 48.347-21.687 48.347-48.346 0-26.66-21.687-48.348-48.347-48.348z"/><path fill="var(--logo-color-1)" d="M564.07 244.152c0-.491-.028-.975-.037-1.464v-60.134c0-9.16-7.426-16.586-16.586-16.586-8.108 0-14.846 5.822-16.29 13.51-13.247-9.692-29.559-15.432-47.192-15.432-44.172 0-80.11 35.936-80.11 80.106 0 44.172 35.938 80.107 80.11 80.107 17.633 0 33.945-5.74 47.191-15.433 1.444 7.69 8.182 13.511 16.29 13.511 9.16 0 16.587-7.424 16.587-16.585v-60.134c.009-.49.037-.974.037-1.466zm-80.105 46.937c-25.882 0-46.937-21.056-46.937-46.937 0-25.88 21.055-46.934 46.937-46.934 25.387 0 46.117 20.267 46.895 45.47v2.929c-.778 25.204-21.508 45.472-46.895 45.472zM1013.943 291.087c-25.88 0-46.937-21.055-46.937-46.935v-46.934h31.363c9.16 0 16.585-7.426 16.585-16.586s-7.425-16.586-16.585-16.586h-31.363v-34.858c0-9.16-7.424-16.586-16.585-16.586-9.16 0-16.585 7.426-16.585 16.586v114.964c0 44.17 35.935 80.106 80.107 80.106 9.161 0 16.586-7.425 16.586-16.586 0-9.16-7.425-16.585-16.586-16.585z"/></symbol><symbol viewBox="0 0 28 28" style="enable-background:new 0 0 28 28" xml:space="preserve" id="ITK-circle-minus" xmlns="http://www.w3.org/2000/svg"><path style="stroke:currentColor;fill:none;stroke-linecap:round;stroke-linejoin:round" d="M14 26.3c6.8 0 12.3-5.5 12.3-12.3h0c0-6.8-5.5-12.3-12.3-12.3S1.7 7.2 1.7 14 7.2 26.3 14 26.3zM20.2 14H7.8"/></symbol><symbol viewBox="0 0 28 28" style="enable-background:new 0 0 28 28" xml:space="preserve" id="ITK-circle-plus" xmlns="http://www.w3.org/2000/svg"><path style="stroke:currentColor;fill:none;stroke-linecap:round;stroke-linejoin:round" d="M14 26.3c6.8 0 12.3-5.5 12.3-12.3h0c0-6.8-5.5-12.3-12.3-12.3S1.7 7.2 1.7 14 7.2 26.3 14 26.3zM14 7.8v12.4M20.2 14H7.8"/></symbol><symbol id="ITK-inlight-logo" viewBox="0 0 819.817 410.437" style="enable-background:new 0 0 819.81738 410.43698" xml:space="preserve" xmlns="http://www.w3.org/2000/svg"><style>.alst0{fill:#fec700}.alst1{fill:#161412}</style><path class="alst0" d="M16.518 145.534c8.899 0 16.11-7.213 16.11-16.11 0-8.898-7.212-16.109-16.11-16.109-8.893 0-16.101 7.211-16.101 16.11 0 8.896 7.208 16.109 16.101 16.109zM122.377 164.983c-41.079 0-69.772 27.424-69.772 66.69v51.901l.019.435a9.964 9.964 0 0 1-9.977 9.56c-5.264 0-9.577-4.077-9.974-9.229h-.043V183.08c0-9.52-6.648-16.171-16.166-16.171-9.52 0-16.17 6.65-16.17 16.17v100.495c0 23.332 18.947 42.312 42.25 42.312 22.455 0 41.01-17.546 42.247-39.995.09-.762.155-1.53.155-2.317v-50.023c0-22.384 15.043-37.428 37.431-37.428 22.384 0 37.42 15.044 37.42 37.428v74.233c0 9.522 6.658 16.171 16.177 16.171 9.52 0 16.17-6.649 16.17-16.17v-76.112c0-39.266-28.685-66.69-69.767-66.69zM284.306 290.462c-25.793 0-46.778-20.984-46.778-46.776V129.111c0-9.129-7.4-16.53-16.53-16.53-9.129 0-16.528 7.401-16.528 16.53v114.573c0 44.022 35.813 79.836 79.836 79.836 9.13 0 16.529-7.4 16.529-16.53s-7.4-16.529-16.53-16.529zM333.122 166.484c-9.215 0-16.684 7.47-16.684 16.684v123.92c0 9.214 7.469 16.683 16.684 16.683 9.214 0 16.683-7.469 16.683-16.684V183.168c0-9.214-7.469-16.684-16.683-16.684zM333.122 146.14c9.216 0 16.683-7.472 16.683-16.685 0-9.215-7.467-16.685-16.683-16.685-9.217 0-16.684 7.47-16.684 16.685 0 9.213 7.467 16.684 16.684 16.684zM525.054 246.378c.008-.491.037-.978.037-1.471 0-.494-.029-.98-.037-1.471v-60.409c0-9.202-7.459-16.66-16.66-16.66-8.147 0-14.916 5.848-16.365 13.572-13.307-9.737-29.693-15.504-47.408-15.504-44.373 0-80.473 36.1-80.473 80.472 0 44.372 36.1 80.472 80.473 80.472 17.583 0 33.857-5.686 47.11-15.292v19.878c0 .165.02.329.025.493-.267 25.77-21.303 46.656-47.135 46.656-9.203 0-16.661 7.46-16.661 16.661 0 9.203 7.458 16.662 16.66 16.662 44.371 0 80.471-36.1 80.471-80.472 0-.25-.026-.493-.037-.74v-82.847zm-80.433 45.679c-26 0-47.151-21.152-47.151-47.15 0-25.998 21.152-47.148 47.15-47.148 25.504 0 46.33 20.359 47.112 45.677v2.941c-.781 25.32-21.608 45.68-47.111 45.68zM612.622 164.352c-13.434 0-25.992 3.347-36.667 9.132v-44.286c0-9.238-7.487-16.727-16.726-16.727-9.239 0-16.726 7.49-16.726 16.727v178.065c0 9.239 7.487 16.727 16.726 16.727 9.239 0 16.726-7.488 16.726-16.727v-81.229c0-15.565 16.45-28.227 36.667-28.227 20.217 0 36.667 12.662 36.667 28.227v81.23c0 9.238 7.485 16.726 16.727 16.726 9.236 0 16.725-7.488 16.725-16.727v-81.229c0-34.011-31.454-61.682-70.12-61.682zM775.315 290.866c-25.771 0-46.743-20.968-46.743-46.74v-46.74h31.236c9.12 0 16.515-7.396 16.515-16.518s-7.394-16.518-16.515-16.518h-31.236v-34.713c0-9.123-7.391-16.518-16.514-16.518-9.122 0-16.519 7.395-16.519 16.518v114.488c0 43.988 35.787 79.775 79.776 79.775 9.126 0 16.518-7.394 16.518-16.517s-7.392-16.517-16.518-16.517z"/><path class="alst1" d="M794.698 116.504h-5.762v20.007a.667.667 0 0 1-.663.657h-3.263a.66.66 0 0 1-.655-.657v-20.007h-5.768c-.37 0-.658-.23-.658-.59v-2.604c0-.363.289-.626.658-.626h16.111c.363 0 .657.263.657.626v2.604c0 .36-.294.59-.657.59zM819.258 137.168h-3.327c-.298 0-.525-.328-.525-.657v-15.323c0-.23-.035-.333-.101-.333-.03 0-.099.102-.165.201l-3.165 6.292c-.198.368-.626.56-1.051.56h-3.333c-.429 0-.857-.192-1.054-.56l-3.192-6.292c-.069-.098-.134-.201-.168-.201-.066 0-.099.102-.099.333v15.323c0 .329-.23.657-.527.657h-3.326c-.3 0-.567-.16-.567-.493v-22.673c0-.722.594-1.318 1.319-1.318h2.706c.528 0 .989.333 1.22.79l4.979 10.085c.158.297.223.462.355.462.133 0 .199-.165.37-.462l4.973-10.085c.23-.457.695-.79 1.219-.79h2.694c.728 0 1.324.596 1.324 1.318v22.673c0 .332-.264.493-.56.493zM43.958 27.7c7.878 0 13.175 5.29 13.175 13.172V68.07c0 3.357 2.337 5.698 5.695 5.698 3.342 0 5.687-2.341 5.687-5.698V40.209c0-13.823-10.098-23.474-24.558-23.474h-.988c-14.458 0-24.557 9.65-24.557 23.474V58.91l.006.159a3.51 3.51 0 0 1-3.51 3.363 3.528 3.528 0 0 1-3.512-3.248h-.013V21.887c0-3.35-2.338-5.695-5.691-5.695C2.338 16.192 0 18.537 0 21.887V58.91c0 8.215 6.667 14.895 14.868 14.895 7.908 0 14.44-6.173 14.874-14.078a6.32 6.32 0 0 0 .056-.817V40.872c0-7.882 5.293-13.172 13.171-13.172h.989z"/><path class="alst0" d="M5.823 11.36a5.669 5.669 0 0 0 5.672-5.67 5.67 5.67 0 1 0-11.34 0c0 3.13 2.54 5.67 5.668 5.67"/><path class="alst1" d="m196.04 18.496-.006.021v-.02c-8.463 0-16.423 3.798-21.844 10.42-4.183 5.1-6.469 11.502-6.456 18.014v21.663c0 3.353 2.365 5.698 5.744 5.698 3.42 0 5.718-2.292 5.718-5.698V46.691c.033-3.854 1.377-7.602 3.805-10.564 3.208-3.915 7.967-6.162 13.06-6.162v-.006h.164c1.37 0 2.707-.474 3.757-1.33 1.166-.96 1.914-2.274 2.098-3.7.191-1.518-.256-2.997-1.304-4.272-1.462-1.784-3.376-2.16-4.736-2.16M102.322 62.955c-3.604-.026-7.379-1.498-10.616-4.156a16.82 16.82 0 0 1-6.196-13.185V29.932H96.98c3.05 0 5.52-2.463 5.52-5.52a5.536 5.536 0 0 0-5.54-5.536l-11.449.007V5.71c0-3.353-2.377-5.698-5.723-5.698-3.354 0-5.705 2.345-5.705 5.698v39.906c.013 8.537 3.748 16.53 10.408 21.989 5.237 4.285 11.13 6.462 17.516 6.462h.066c3.353 0 5.69-2.365 5.69-5.745 0-3.214-2.166-5.362-5.44-5.368M346.646 63.851l-21.915-21.91 16.672-14.277c1.193-1.078 1.983-2.876 1.983-4.467 0-3.356-2.342-5.688-5.69-5.688-1.633 0-3.433.738-4.797 1.982L312.287 37.16V5.7c0-3.358-2.345-5.699-5.698-5.699-3.352 0-5.692 2.341-5.692 5.698v62.948c0 3.354 2.34 5.695 5.692 5.695 3.353 0 5.698-2.341 5.698-5.695V53.233c0-.8.333-1.588.975-2.16 1.206-1.072 3.004-.924 4.144.242l21.076 21.047c1.077 1.185 2.869 1.98 4.463 1.98 3.352 0 5.695-2.342 5.695-5.696 0-1.633-.747-3.429-1.994-4.795M233.977 62.955c-3.606-.026-7.381-1.498-10.62-4.156a16.818 16.818 0 0 1-6.194-13.185V29.932h11.452c3.063 0 5.286-2.325 5.286-5.526 0-3.202-2.223-5.523-5.286-5.523h-11.452V5.71c0-3.353-2.379-5.698-5.724-5.698-3.35 0-5.706 2.345-5.706 5.698v39.906c.01 8.537 3.749 16.53 10.412 21.989 5.23 4.285 11.125 6.462 17.512 6.462h.07c3.346 0 5.691-2.365 5.691-5.745 0-3.214-2.164-5.362-5.441-5.368"/><path class="alst1" d="M284.673 23.964c-5.157-4.228-11.356-6.455-17.905-6.455-8.457 0-16.415 3.795-21.843 10.409-10.03 12.258-8.293 29.712 3.96 39.747 5.111 4.19 11.53 6.495 18.084 6.495 1.407 0 2.817-.108 4.2-.312 1.054-.162 2.546-.65 3.702-2.066 1.957-2.38 1.595-6.054-.793-8.004-.9-.737-2.013-1.106-3.317-1.106-.35 0-.712.026-1.08.086-.818.138-1.67.184-2.524.184-9.98 0-17.535-7.678-17.535-17.13 0-9.463 7.665-17.127 17.123-17.127 7.705 0 14.22 5.088 16.37 12.09h-16.392a5.094 5.094 0 0 0-5.102 5.093c0 2.819 2.2 5.095 5.016 5.095h21.808c2.364 0 4.297-.998 5.391-2.328.916-1.12 1.364-2.517 1.29-4.033-.398-8.002-4.208-15.519-10.453-20.638M153.19 23.964c-5.172-4.228-11.364-6.455-17.91-6.455-8.453 0-16.42 3.795-21.84 10.409-10.041 12.258-8.303 29.712 3.954 39.747 5.118 4.19 11.534 6.495 18.083 6.495 1.405 0 2.818-.108 4.201-.312 1.054-.162 2.546-.65 3.71-2.066 1.952-2.38 1.587-6.054-.801-8.004-.9-.737-2.013-1.106-3.317-1.106-.35 0-.718.026-1.084.086-.813.138-1.663.184-2.519.184-9.98 0-17.537-7.678-17.537-17.13 0-9.463 7.665-17.127 17.124-17.127 7.705 0 14.22 5.088 16.371 12.09h-16.4a5.093 5.093 0 0 0-5.095 5.093c0 2.819 2.197 5.095 5.014 5.095h21.814c2.358 0 4.294-.998 5.384-2.328.92-1.12 1.364-2.517 1.295-4.033-.402-8.002-4.21-15.519-10.447-20.638"/></symbol><symbol viewBox="0 0 819.817 410.437" style="enable-background:new 0 0 819.81738 410.43698" xml:space="preserve" id="ITK-inlight-logo-variable" xmlns="http://www.w3.org/2000/svg"><g fill="var(--logo-color-1)"><path d="M16.518 145.534c8.899 0 16.11-7.213 16.11-16.11 0-8.898-7.212-16.109-16.11-16.109-8.893 0-16.101 7.211-16.101 16.11 0 8.896 7.208 16.109 16.101 16.109zM122.377 164.983c-41.079 0-69.772 27.424-69.772 66.69v51.901l.019.435a9.964 9.964 0 0 1-9.977 9.56c-5.264 0-9.577-4.077-9.974-9.229h-.043V183.08c0-9.52-6.648-16.171-16.166-16.171-9.52 0-16.17 6.65-16.17 16.17v100.495c0 23.332 18.947 42.312 42.25 42.312 22.455 0 41.01-17.546 42.247-39.995.09-.762.155-1.53.155-2.317v-50.023c0-22.384 15.043-37.428 37.431-37.428 22.384 0 37.42 15.044 37.42 37.428v74.233c0 9.522 6.658 16.171 16.177 16.171 9.52 0 16.17-6.649 16.17-16.17v-76.112c0-39.266-28.685-66.69-69.767-66.69z"/></g><path fill="var(--logo-color-1)" d="M284.306 290.462c-25.793 0-46.778-20.984-46.778-46.776V129.111c0-9.129-7.4-16.53-16.53-16.53-9.129 0-16.528 7.401-16.528 16.53v114.573c0 44.022 35.813 79.836 79.836 79.836 9.13 0 16.529-7.4 16.529-16.53s-7.4-16.529-16.53-16.529z"/><g fill="var(--logo-color-1)"><path d="M333.122 166.484c-9.215 0-16.684 7.47-16.684 16.684v123.92c0 9.214 7.469 16.683 16.684 16.683 9.214 0 16.683-7.469 16.683-16.684V183.168c0-9.214-7.469-16.684-16.683-16.684zM333.122 146.14c9.216 0 16.683-7.472 16.683-16.685 0-9.215-7.467-16.685-16.683-16.685-9.217 0-16.684 7.47-16.684 16.685 0 9.213 7.467 16.684 16.684 16.684z"/></g><path fill="var(--logo-color-1)" d="M525.054 246.378c.008-.491.037-.978.037-1.471 0-.494-.029-.98-.037-1.471v-60.409c0-9.202-7.459-16.66-16.66-16.66-8.147 0-14.916 5.848-16.365 13.572-13.307-9.737-29.693-15.504-47.408-15.504-44.373 0-80.473 36.1-80.473 80.472 0 44.372 36.1 80.472 80.473 80.472 17.583 0 33.857-5.686 47.11-15.292v19.878c0 .165.02.329.025.493-.267 25.77-21.303 46.656-47.135 46.656-9.203 0-16.661 7.46-16.661 16.661 0 9.203 7.458 16.662 16.66 16.662 44.371 0 80.471-36.1 80.471-80.472 0-.25-.026-.493-.037-.74v-82.847zm-80.433 45.679c-26 0-47.151-21.152-47.151-47.15 0-25.998 21.152-47.148 47.15-47.148 25.504 0 46.33 20.359 47.112 45.677v2.941c-.781 25.32-21.608 45.68-47.111 45.68zM612.622 164.352c-13.434 0-25.992 3.347-36.667 9.132v-44.286c0-9.238-7.487-16.727-16.726-16.727-9.239 0-16.726 7.49-16.726 16.727v178.065c0 9.239 7.487 16.727 16.726 16.727 9.239 0 16.726-7.488 16.726-16.727v-81.229c0-15.565 16.45-28.227 36.667-28.227 20.217 0 36.667 12.662 36.667 28.227v81.23c0 9.238 7.485 16.726 16.727 16.726 9.236 0 16.725-7.488 16.725-16.727v-81.229c0-34.011-31.454-61.682-70.12-61.682zM775.315 290.866c-25.771 0-46.743-20.968-46.743-46.74v-46.74h31.236c9.12 0 16.515-7.396 16.515-16.518s-7.394-16.518-16.515-16.518h-31.236v-34.713c0-9.123-7.391-16.518-16.514-16.518-9.122 0-16.519 7.395-16.519 16.518v114.488c0 43.988 35.787 79.775 79.776 79.775 9.126 0 16.518-7.394 16.518-16.517s-7.392-16.517-16.518-16.517z"/><g fill="var(--logo-color-2)"><path d="M794.698 116.504h-5.762v20.007a.667.667 0 0 1-.663.657h-3.263a.66.66 0 0 1-.655-.657v-20.007h-5.768c-.37 0-.658-.23-.658-.59v-2.604c0-.363.289-.626.658-.626h16.111c.363 0 .657.263.657.626v2.604c0 .36-.294.59-.657.59zM819.258 137.168h-3.327c-.298 0-.525-.328-.525-.657v-15.323c0-.23-.035-.333-.101-.333-.03 0-.099.102-.165.201l-3.165 6.292c-.198.368-.626.56-1.051.56h-3.333c-.429 0-.857-.192-1.054-.56l-3.192-6.292c-.069-.098-.134-.201-.168-.201-.066 0-.099.102-.099.333v15.323c0 .329-.23.657-.527.657h-3.326c-.3 0-.567-.16-.567-.493v-22.673c0-.722.594-1.318 1.319-1.318h2.706c.528 0 .989.333 1.22.79l4.979 10.085c.158.297.223.462.355.462.133 0 .199-.165.37-.462l4.973-10.085c.23-.457.695-.79 1.219-.79h2.694c.728 0 1.324.596 1.324 1.318v22.673c0 .332-.264.493-.56.493z"/></g><path fill="var(--logo-color-2)" d="M43.958 27.7c7.878 0 13.175 5.29 13.175 13.172V68.07c0 3.357 2.337 5.698 5.695 5.698 3.342 0 5.687-2.341 5.687-5.698V40.209c0-13.823-10.098-23.474-24.558-23.474h-.988c-14.458 0-24.557 9.65-24.557 23.474V58.91l.006.159a3.51 3.51 0 0 1-3.51 3.363 3.528 3.528 0 0 1-3.512-3.248h-.013V21.887c0-3.35-2.338-5.695-5.691-5.695C2.338 16.192 0 18.537 0 21.887V58.91c0 8.215 6.667 14.895 14.868 14.895 7.908 0 14.44-6.173 14.874-14.078a6.32 6.32 0 0 0 .056-.817V40.872c0-7.882 5.293-13.172 13.171-13.172h.989z"/><path fill="var(--logo-color-1)" d="M5.823 11.36a5.669 5.669 0 0 0 5.672-5.67 5.67 5.67 0 1 0-11.34 0c0 3.13 2.54 5.67 5.668 5.67"/><path fill="var(--logo-color-2)" d="m196.04 18.496-.006.021v-.02c-8.463 0-16.423 3.798-21.844 10.42-4.183 5.1-6.469 11.502-6.456 18.014v21.663c0 3.353 2.365 5.698 5.744 5.698 3.42 0 5.718-2.292 5.718-5.698V46.691c.033-3.854 1.377-7.602 3.805-10.564 3.208-3.915 7.967-6.162 13.06-6.162v-.006h.164c1.37 0 2.707-.474 3.757-1.33 1.166-.96 1.914-2.274 2.098-3.7.191-1.518-.256-2.997-1.304-4.272-1.462-1.784-3.376-2.16-4.736-2.16M102.322 62.955c-3.604-.026-7.379-1.498-10.616-4.156a16.82 16.82 0 0 1-6.196-13.185V29.932H96.98c3.05 0 5.52-2.463 5.52-5.52a5.536 5.536 0 0 0-5.54-5.536l-11.449.007V5.71c0-3.353-2.377-5.698-5.723-5.698-3.354 0-5.705 2.345-5.705 5.698v39.906c.013 8.537 3.748 16.53 10.408 21.989 5.237 4.285 11.13 6.462 17.516 6.462h.066c3.353 0 5.69-2.365 5.69-5.745 0-3.214-2.166-5.362-5.44-5.368M346.646 63.851l-21.915-21.91 16.672-14.277c1.193-1.078 1.983-2.876 1.983-4.467 0-3.356-2.342-5.688-5.69-5.688-1.633 0-3.433.738-4.797 1.982L312.287 37.16V5.7c0-3.358-2.345-5.699-5.698-5.699-3.352 0-5.692 2.341-5.692 5.698v62.948c0 3.354 2.34 5.695 5.692 5.695 3.353 0 5.698-2.341 5.698-5.695V53.233c0-.8.333-1.588.975-2.16 1.206-1.072 3.004-.924 4.144.242l21.076 21.047c1.077 1.185 2.869 1.98 4.463 1.98 3.352 0 5.695-2.342 5.695-5.696 0-1.633-.747-3.429-1.994-4.795M233.977 62.955c-3.606-.026-7.381-1.498-10.62-4.156a16.818 16.818 0 0 1-6.194-13.185V29.932h11.452c3.063 0 5.286-2.325 5.286-5.526 0-3.202-2.223-5.523-5.286-5.523h-11.452V5.71c0-3.353-2.379-5.698-5.724-5.698-3.35 0-5.706 2.345-5.706 5.698v39.906c.01 8.537 3.749 16.53 10.412 21.989 5.23 4.285 11.125 6.462 17.512 6.462h.07c3.346 0 5.691-2.365 5.691-5.745 0-3.214-2.164-5.362-5.441-5.368"/><path fill="var(--logo-color-2)" d="M284.673 23.964c-5.157-4.228-11.356-6.455-17.905-6.455-8.457 0-16.415 3.795-21.843 10.409-10.03 12.258-8.293 29.712 3.96 39.747 5.111 4.19 11.53 6.495 18.084 6.495 1.407 0 2.817-.108 4.2-.312 1.054-.162 2.546-.65 3.702-2.066 1.957-2.38 1.595-6.054-.793-8.004-.9-.737-2.013-1.106-3.317-1.106-.35 0-.712.026-1.08.086-.818.138-1.67.184-2.524.184-9.98 0-17.535-7.678-17.535-17.13 0-9.463 7.665-17.127 17.123-17.127 7.705 0 14.22 5.088 16.37 12.09h-16.392a5.094 5.094 0 0 0-5.102 5.093c0 2.819 2.2 5.095 5.016 5.095h21.808c2.364 0 4.297-.998 5.391-2.328.916-1.12 1.364-2.517 1.29-4.033-.398-8.002-4.208-15.519-10.453-20.638M153.19 23.964c-5.172-4.228-11.364-6.455-17.91-6.455-8.453 0-16.42 3.795-21.84 10.409-10.041 12.258-8.303 29.712 3.954 39.747 5.118 4.19 11.534 6.495 18.083 6.495 1.405 0 2.818-.108 4.201-.312 1.054-.162 2.546-.65 3.71-2.066 1.952-2.38 1.587-6.054-.801-8.004-.9-.737-2.013-1.106-3.317-1.106-.35 0-.718.026-1.084.086-.813.138-1.663.184-2.519.184-9.98 0-17.537-7.678-17.537-17.13 0-9.463 7.665-17.127 17.124-17.127 7.705 0 14.22 5.088 16.371 12.09h-16.4a5.093 5.093 0 0 0-5.095 5.093c0 2.819 2.197 5.095 5.014 5.095h21.814c2.358 0 4.294-.998 5.384-2.328.92-1.12 1.364-2.517 1.295-4.033-.402-8.002-4.21-15.519-10.447-20.638"/></symbol><symbol viewBox="0 0 594.5 201.8" style="enable-background:new 0 0 594.5 201.8" xml:space="preserve" id="ITK-logo-strapline" xmlns="http://www.w3.org/2000/svg"><path fill="currentColor" d="M10.7 19.3c5.3 0 9.7-4.3 9.7-9.7 0-5.3-4.3-9.7-9.7-9.7-5.3.1-9.6 4.4-9.6 9.8 0 5.3 4.3 9.6 9.6 9.6"/><path d="M334.7 31.5c-14.4 0-28 6.5-37.2 17.7-7.1 8.7-11 19.6-11 30.7v36.9c0 5.7 4 9.7 9.8 9.7 5.8 0 9.7-3.9 9.7-9.7V79.5c0-6.6 2.3-13 6.5-18C317.9 54.8 326 51 334.7 51h.3c2.3 0 4.6-.8 6.4-2.3 2-1.6 3.3-3.9 3.6-6.3.3-2.6-.4-5.1-2.2-7.3-2.6-3-5.8-3.6-8.1-3.6M74.2 29.4c-24.6 0-41.8 16.4-41.8 40v32.1c-.1 3.2-2.8 5.7-6 5.7s-5.7-2.4-6-5.5V38.2c0-5.7-4-9.7-9.7-9.7-5.7 0-9.7 4-9.7 9.7v63.1c0 14 11.4 25.4 25.3 25.4 13.5 0 24.6-10.5 25.3-24 .1-.5.1-.9.1-1.4V70.5c0-13.4 9-22.4 22.4-22.4 13.4 0 22.4 9 22.4 22.4v46.3c0 5.7 4 9.7 9.7 9.7 5.7 0 9.7-4 9.7-9.7V69.4c.1-23.6-17.1-40-41.7-40M175.1 107.2c-6.1 0-12.6-2.6-18.1-7.1-6.7-5.5-10.6-13.7-10.5-22.4V51H166c5.2 0 9.4-4.2 9.4-9.4s-4.2-9.4-9.4-9.4h-19.5V9.7c0-5.7-4-9.7-9.8-9.7-5.7 0-9.7 4-9.7 9.7v68c0 14.5 6.4 28.1 17.7 37.4 8.9 7.3 18.9 11 29.8 11h.1c5.7 0 9.7-4 9.7-9.8 0-5.4-3.7-9.1-9.2-9.1M591.1 108.7l-37.3-37.3 28.4-24.3c2-1.8 3.4-4.9 3.4-7.6 0-5.7-4-9.7-9.7-9.7-2.8 0-5.8 1.3-8.2 3.4l-35.1 30.1V9.7c0-5.7-4-9.7-9.7-9.7-5.7 0-9.7 4-9.7 9.7v107.2c0 5.7 4 9.7 9.7 9.7 5.7 0 9.7-4 9.7-9.7V90.6c0-1.4.6-2.7 1.7-3.7 2.1-1.8 5.1-1.6 7.1.4l35.9 35.8c1.8 2 4.9 3.4 7.6 3.4 5.7 0 9.7-4 9.7-9.7-.1-2.7-1.4-5.7-3.5-8.1M399.2 107.2c-6.1 0-12.6-2.6-18.1-7.1-6.7-5.5-10.6-13.7-10.5-22.4V51h19.5c5.2 0 9-4 9-9.4 0-5.5-3.8-9.4-9-9.4h-19.5V9.7c0-5.7-4-9.7-9.8-9.7-5.7 0-9.7 4-9.7 9.7v68c0 14.5 6.4 28.1 17.7 37.4 8.9 7.3 18.9 11 29.8 11h.1c5.7 0 9.7-4 9.7-9.8.1-5.4-3.6-9.1-9.2-9.1"/><path d="M485.6 40.8c-8.8-7.2-19.3-11-30.5-11-14.4 0-28 6.5-37.2 17.7-17.1 20.9-14.1 50.6 6.7 67.7 8.7 7.1 19.6 11.1 30.8 11.1 2.4 0 4.8-.2 7.2-.5 1.8-.3 4.3-1.1 6.3-3.5 3.3-4.1 2.7-10.3-1.4-13.6-1.5-1.2-3.4-1.9-5.6-1.9-.6 0-1.2 0-1.8.1-1.4.2-2.8.3-4.3.3-17 0-29.9-13.1-29.9-29.2s13.1-29.2 29.2-29.2c13.1 0 24.2 8.7 27.9 20.6h-27.9c-4.8 0-8.7 3.9-8.7 8.7 0 4.8 3.8 8.7 8.5 8.7H492c4 0 7.3-1.7 9.2-4 1.6-1.9 2.3-4.3 2.2-6.9-.7-13.6-7.2-26.4-17.8-35.1M261.7 40.8c-8.8-7.2-19.3-11-30.5-11-14.4 0-28 6.5-37.2 17.7-17.1 20.9-14.1 50.6 6.7 67.7 8.7 7.1 19.6 11.1 30.8 11.1 2.4 0 4.8-.2 7.2-.5 1.8-.3 4.3-1.1 6.3-3.5 3.3-4.1 2.7-10.3-1.4-13.6-1.5-1.2-3.4-1.9-5.6-1.9-.6 0-1.2 0-1.8.1-1.4.2-2.8.3-4.3.3-17 0-29.9-13.1-29.9-29.2s13.1-29.2 29.2-29.2c13.1 0 24.2 8.7 27.9 20.6h-27.9c-4.8 0-8.7 3.9-8.7 8.7 0 4.8 3.8 8.7 8.5 8.7h37.1c4 0 7.3-1.7 9.2-4 1.6-1.9 2.3-4.3 2.2-6.9-.7-13.6-7.2-26.4-17.8-35.1"/><path class="amst1" d="M417.6 192.3v-4.8c0-.5-.4-.8-.9-.8h-3.8c-.5 0-.9.3-.9.8v4.8c0 .5.4.9.9.9h3.8c.5 0 .9-.4.9-.9m-15.9-3.7c-.8.2-2.6.3-4.1.3-3.7 0-4.6-2.6-4.6-6.1v-3.3c0-3.5.9-6.1 4.6-6.1 1 0 2.9.1 4.1.3v14.9zm5.6 2.7v-29.8c0-.5-.4-.9-.9-.9h-3.9c-.5 0-.9.4-.9.9v7.6c-1.6-.2-3.1-.3-4.1-.3-6.9 0-10.2 4.1-10.2 10.8v3.3c0 6.7 3.3 10.8 10.2 10.8 2.7 0 6-.4 8.6-1.1 1.1-.4 1.2-.7 1.2-1.3m-28.8-12.2h-9.1v-.2c0-3.4 1.9-5.3 4.6-5.3 2.7 0 4.5 1.9 4.5 5.3v.2zm5.7 2.9v-2.4c0-6.4-3.6-10.9-10.2-10.9s-10.3 4.2-10.3 10.9v3.2c0 8.4 6.1 10.8 10.4 10.8 3.9 0 5.5-.2 8.3-.7.8-.1.9-.4.9-1.1V189c0-.4-.3-.6-.8-.6h-.1c-1.8.2-4.8.4-7.9.4-4.1 0-5.1-3-5.1-5.4v-.1h14c.5-.2.8-.6.8-1.3m-21.7-9.3v-3.1c0-.5-.4-.9-.9-.9-1.7 0-4 .4-6.1 2.1v-.9c0-.5-.4-.9-.9-.9h-3.7c-.5 0-.9.4-.9.9v22.4c0 .5.4.9.9.9h3.9c.5 0 .9-.4.9-.9v-17.2c1.8-.9 3.6-1.5 5.9-1.5.5-.1.9-.4.9-.9m-17.2 19.6v-22.4c0-.5-.4-.9-.9-.9h-3.9c-.5 0-.9.4-.9.9V187c-1.2.6-3.3 1.7-4.8 1.7-1.3 0-2.1-.3-2.7-.8-.8-.7-1-2-1-4.1v-14c0-.5-.4-.9-.9-.9h-3.9c-.5 0-.9.4-.9.9v14c0 3.6.6 6.2 2.1 7.8 1.2 1.2 3.1 1.8 5.3 1.8 2.7 0 4.5-.7 6.7-2.1v1c0 .5.4.9.9.9h3.9c.6 0 1-.4 1-.9m-23.6-5.4c0-2.2-.5-4.3-4.1-6.5L312 177c-1.1-.6-1.7-1.1-1.7-1.8 0-1.3.9-1.8 3-1.8 2.4 0 5.9.3 7.1.5h.2c.4 0 .7-.3.7-.8v-2.5c0-.5-.3-.9-.8-1-2.2-.5-4.2-.9-7.6-.9-5.4 0-8.1 2.1-8.1 6.4 0 2.5 1.5 4.6 3.6 5.9l5.9 3.6c1.4.9 1.9 1.4 1.9 2.2 0 1.2-.4 2.1-3 2.1-1.3 0-5.1-.2-7.2-.5h-.2c-.4 0-.7.3-.7.7v2.6c0 .5.3.9.8 1 2.4.6 6 .9 7.7.9 5.3-.1 8.1-3 8.1-6.7m-20.1 0c0-2.2-.5-4.3-4.1-6.5l-5.6-3.4c-1.1-.6-1.7-1.1-1.7-1.8 0-1.3.9-1.8 3-1.8 2.4 0 5.9.3 7.1.5h.2c.4 0 .7-.3.7-.8v-2.5c0-.5-.3-.9-.8-1-2.2-.5-4.2-.9-7.6-.9-5.4 0-8.1 2.1-8.1 6.4 0 2.5 1.5 4.6 3.6 5.9l5.9 3.6c1.4.9 1.9 1.4 1.9 2.2 0 1.2-.4 2.1-3 2.1-1.3 0-5.1-.2-7.2-.5h-.2c-.4 0-.7.3-.7.7v2.6c0 .5.3.9.8 1 2.4.6 6 .9 7.7.9 5.3-.1 8.1-3 8.1-6.7m-28.3-7.4h-7.5l3.1-12.7c.1-.5.3-.7.7-.7.4 0 .6.2.7.7l3 12.7zm9.3 13v-.2l-7-26.9c-1-4-4.1-4.4-6-4.4-1.8 0-4.9.4-6 4.4l-7 26.9v.2c0 .4.3.7.8.7h4.5c.4 0 .7-.3.8-.7l2-8.1h9.9l2 8.1c.1.4.4.7.8.7h4.5c.3 0 .7-.3.7-.7m-38.7-.2v-4.8c0-.5-.4-.8-.9-.8h-3.8c-.5 0-.9.3-.9.8v4.8c0 .5.4.9.9.9h3.8c.5 0 .9-.4.9-.9m-5.7-22.5c0-.4-.3-.7-.8-.7H233c-.4 0-.8.3-.9.7l-4.6 18.4H227.2c-.3 0-.4-.2-.6-.9l-4.3-17.4c-.1-.4-.4-.8-.8-.8h-4.3c-.6 0-.8.3-.8.7v.3l5.6 19.6c.9 3.3 2.5 3.6 3.7 3.6h.6l-.3 1.3c-.6 2.2-1.5 2.7-3.4 2.7-1.2 0-3.6-.2-4.8-.3h-.1c-.5 0-.9.3-.9.8v2.7c0 .4.4.6.9.7 1 .3 3.1.6 4.5.6 5.8 0 7.4-2.1 8.7-6.7l7.2-25c.1-.2.1-.2.1-.3M215 192.5v-2.7c0-.4-.3-.6-.9-.6h-2.3c-1.5 0-1.7-.3-1.7-2.4v-13.5h3.9c.5 0 .9-.4.9-.9v-2.5c0-.5-.4-.9-.9-.9h-3.9v-4.4c0-.4-.3-.6-.7-.6h-.2l-4 .7c-.5.1-.9.4-.9.9v3.5h-4c-.5 0-.9.4-.9.9v1.9c0 .5.4.8.9.9l4 .6v13.5c0 5.7 2 6.8 6.8 6.8.9 0 1.9-.1 2.9-.3.8-.2 1-.5 1-.9m-18.3-.2v-22.4c0-.5-.4-.9-.9-.9h-3.9c-.5 0-.9.4-.9.9v22.4c0 .5.4.9.9.9h3.9c.5 0 .9-.4.9-.9m.1-27.3v-3.8c0-.5-.4-.9-.9-.9h-4.2c-.5 0-.9.4-.9.9v3.8c0 .5.4.9.9.9h4.2c.5-.1.9-.5.9-.9M186 192.3v-30.9c0-.5-.3-.9-.8-.9h-4c-.5 0-.9.4-.9.9v30.9c0 .5.4.9.9.9h4c.4 0 .8-.4.8-.9m-16.3-4.5c-1.2.7-2.8 1.2-4.4 1.2-2.1 0-3.1-.6-3.1-2.7v-.2c0-2.4.9-3.6 4.8-3.6h2.7v5.3zm5.7 4.5v-15.4c0-5.5-3.3-8.2-9.4-8.2-3 0-5.4.3-7.2.7-.6.1-.8.4-.8.9v2.7c0 .6.3.7.8.7h.2c1.4-.2 4.2-.3 7-.3 2.5 0 3.8.7 3.8 3.5v1.9H167c-7.5 0-10.5 2.5-10.5 7.4v.2c0 5.8 3.9 7.2 7.4 7.2 2.1 0 4.1-.7 6-1.9v.7c0 .5.4.9.9.9h3.6c.6-.1 1-.5 1-1m-22.6 0v-22.4c0-.5-.4-.9-.9-.9H148c-.5 0-.9.4-.9.9V187c-1.2.6-3.3 1.7-4.8 1.7-1.3 0-2.1-.3-2.7-.8-.8-.7-1-2-1-4.1v-14c0-.5-.4-.9-.9-.9h-3.9c-.5 0-.9.4-.9.9v14c0 3.6.6 6.2 2.1 7.8 1.2 1.2 3.1 1.8 5.3 1.8 2.7 0 4.5-.7 6.7-2.1v1c0 .5.4.9.9.9h3.9c.6 0 1-.4 1-.9m-30.3-12.1c0 5.7-2 8.2-6.2 8.2s-6.2-2.5-6.2-8.2v-5.8c0-5.7 2-8.2 6.2-8.2s6.2 2.5 6.2 8.2v5.8zm6 0v-5.8c0-9.4-5.1-13.4-12.2-13.4s-12.2 3.9-12.2 13.4v5.8c0 8.1 3.8 12.2 9.4 13.2v1c0 4.3 2.9 6 6.9 6 1.4 0 3.4-.3 4.2-.5.6-.2.9-.5.9-.9v-2.7c0-.4-.4-.7-1-.7h-4.2c-.7 0-1.3-.3-1.3-1.4v-.9c5.7-1 9.5-5 9.5-13.1m-39 12.1v-30.9c0-.5-.3-.9-.8-.9h-4c-.5 0-.9.4-.9.9v30.9c0 .5.4.9.9.9h4c.4 0 .8-.4.8-.9m-16.3-4.5c-1.2.7-2.8 1.2-4.4 1.2-2.1 0-3.1-.6-3.1-2.7v-.2c0-2.4.9-3.6 4.8-3.6h2.7v5.3zm5.7 4.5v-15.4c0-5.5-3.3-8.2-9.4-8.2-3 0-5.4.3-7.2.7-.6.1-.8.4-.8.9v2.7c0 .6.3.7.8.7h.2c1.4-.2 4.2-.3 7-.3 2.5 0 3.8.7 3.8 3.5v1.9h-2.7c-7.5 0-10.5 2.5-10.5 7.4v.2c0 5.8 3.9 7.2 7.4 7.2 2.1 0 4.1-.7 6-1.9v.7c0 .5.4.9.9.9H78c.5-.1.9-.5.9-1m-20.9.2v-2.7c0-.4-.3-.6-.9-.6h-2.3c-1.5 0-1.7-.3-1.7-2.4v-13.5H57c.5 0 .9-.4.9-.9v-2.5c0-.5-.4-.9-.9-.9h-3.9v-4.4c0-.4-.3-.6-.7-.6h-.2l-4 .7c-.5.1-.9.4-.9.9v3.5h-4c-.5 0-.9.4-.9.9v1.9c0 .5.4.8.9.9l4 .6v13.5c0 5.7 2 6.8 6.8 6.8.9 0 1.9-.1 2.9-.3.7-.2 1-.5 1-.9m-22.1-9.6c0 3.5-1.6 5.8-4.6 5.8-3 0-4.6-2.3-4.6-5.8v-3.5c0-3.5 1.6-5.8 4.6-5.8 3 0 4.6 2.3 4.6 5.8v3.5zm5.7 0v-3.5c0-6.1-3.5-10.7-10.2-10.7-6.7 0-10.2 4.5-10.2 10.7v3.5c0 6.1 3.5 10.7 10.2 10.7 6.7-.1 10.2-4.6 10.2-10.7m-18.9-17.3v-3.4c0-.5-.4-.8-.9-.8H.8c-.5 0-.9.3-.9.8v3.4c0 .5.4.8.9.8h7.5v26c0 .5.4.9.9.9h4.2c.5 0 .9-.4.9-.9v-26h7.5c.5-.1.9-.4.9-.8"/></symbol><symbol viewBox="0 96 960 960" id="arrow-right" xmlns="http://www.w3.org/2000/svg"><path d="M540 793q-9-9-9-21.5t8-20.5l147-147H190q-13 0-21.5-8.5T160 574q0-13 8.5-21.5T190 544h496L538 396q-9-9-8.5-21t9.5-21q9-8 21.5-8t20.5 8l199 199q5 5 7 10t2 11q0 6-2 11t-7 10L582 793q-9 9-21 9t-21-9Z"/></symbol><symbol viewBox="0 0 18 20" style="enable-background:new 0 0 18 20" xml:space="preserve" id="arrow-up-colourable" xmlns="http://www.w3.org/2000/svg"><path style="fill:none;stroke-linecap:round;stroke-linejoin:round;stroke-width:4" d="M9 17.2V3.7M2.9 8.9l6.1-6 6.1 6"/></symbol><symbol viewBox="0 0 100 100" xml:space="preserve" id="burger-menu" xmlns="http://www.w3.org/2000/svg"><path xmlns="http://www.w3.org/2000/svg" fill="none" style="stroke-width:12.5" d="M-.019 15.313h100m-100 34.8h100m-100 34.8h100"/></symbol><symbol viewBox="0 0 10 10" id="cta-arrow" xmlns="http://www.w3.org/2000/svg"><circle fill="#21b6d7" cx="5" cy="5" r="5"/><path fill="none" stroke="#fff" stroke-width=".5" stroke-linecap="round" stroke-linejoin="round" d="M3 5h4L5.5 3.5M7 5 5.5 6.5"/></symbol><symbol viewBox="0 0 19.4 23" style="enable-background:new 0 0 19.4 23" xml:space="preserve" id="download-blue" xmlns="http://www.w3.org/2000/svg"><path style="fill:none;stroke-linecap:round;stroke-linejoin:round" d="M9.7 1.1V16M16.3 10.3 9.7 16l-6.6-5.7M1.1 21.9h17.1"/></symbol><symbol viewBox="0 0 24 24" fill="none" stroke="#fff" id="download-light" xmlns="http://www.w3.org/2000/svg"><g stroke-width="2" stroke-linecap="round" stroke-linejoin="round"><path d="M12.5 4v13m0 0L7 12.21M12.5 17l5.5-4.79M6 21h13"/></g></symbol><symbol viewBox="0 0 60.08 60.079" id="download-yellow" xmlns="http://www.w3.org/2000/svg"><g data-name="Group 2390"><path data-name="Path 1204" d="M60.08 30.039a30.039 30.039 0 0 1-30.039 30.04A30.039 30.039 0 0 1 0 30.039 30.039 30.039 0 0 1 30.041 0 30.039 30.039 0 0 1 60.08 30.039" fill="#ffc700"/><path data-name="Path 1205" d="M30.04 15.401v21.046m9.334-8.133-9.336 8.133-9.331-8.133m-2.74 16.426h24.146" fill="none" stroke="#06213d" stroke-linecap="round" stroke-linejoin="round" stroke-width="2.01"/></g></symbol><symbol viewBox="0 0 26.366 16.82" id="email" xmlns="http://www.w3.org/2000/svg"><g data-name="Group 661" fill="#06213d" stroke="#06213d" stroke-width=".25"><path data-name="Path 73" d="M13.566 9.749a.547.547 0 0 0 0-.774.546.546 0 0 0-.774 0 .546.546 0 0 0 0 .774.547.547 0 0 0 .774 0"/><path data-name="Path 74" d="M24.056.125H2.307A2.184 2.184 0 0 0 .125 2.307v12.206a2.184 2.184 0 0 0 2.182 2.182h21.749a2.184 2.184 0 0 0 2.182-2.182V2.307A2.184 2.184 0 0 0 24.056.125m1.346 14.388a1.348 1.348 0 0 1-1.346 1.347H2.307a1.348 1.348 0 0 1-1.351-1.347V2.307A1.348 1.348 0 0 1 2.307.96h21.749a1.348 1.348 0 0 1 1.349 1.347Z"/><path data-name="Path 75" d="m23.7 1.803-9.353 9.353-.122.118c-.438.425-.484.471-1.042.471s-.6-.044-1.031-.461l-.128-.122-9.358-9.359a.417.417 0 0 0-.592 0 .419.419 0 0 0 0 .592l9.367 9.365.132.127a1.846 1.846 0 0 0 1.611.695 1.853 1.853 0 0 0 1.623-.706l.127-.122 9.357-9.359a.419.419 0 0 0 0-.592.416.416 0 0 0-.591 0"/><path data-name="Path 76" d="m6.978 9.387-4.9 4.9a.419.419 0 0 0 0 .592.419.419 0 0 0 .3.122.421.421 0 0 0 .3-.122l4.9-4.9a.419.419 0 0 0 0-.592.417.417 0 0 0-.592 0"/><path data-name="Path 77" d="M19.389 9.387a.416.416 0 0 0-.591 0 .419.419 0 0 0 0 .592l4.9 4.9a.418.418 0 1 0 .591-.592Z"/></g></symbol><symbol viewBox="0 0 60.125 60.124" id="info-yellow" xmlns="http://www.w3.org/2000/svg"><g data-name="Group 2158"><path data-name="Path 1209" d="M60.125 30.062a30.061 30.061 0 0 1-30.062 30.062A30.061 30.061 0 0 1 0 30.062 30.061 30.061 0 0 1 30.063 0a30.061 30.061 0 0 1 30.062 30.062" fill="#ffc700"/><g data-name="Group 1387"><g data-name="Group 1255" transform="translate(12.251 11.673)" fill="none" stroke="#06213d" stroke-width="2"><path data-name="Path 1168" d="M31.691 31.085a18.333 18.333 0 1 1 3.257-4.691" stroke-linecap="round"/><circle data-name="Ellipse 27" cx="2.101" cy="2.101" r="2.101" transform="translate(16.287 5.279)"/><path data-name="Path 1169" d="M20.48 14.234a2.1 2.1 0 0 0-4.184 0l-.009 15.189a2.1 2.1 0 1 0 4.2 0Z"/><path data-name="Line 94" stroke-linecap="round" d="M33.436 28.949h0"/></g></g></g></symbol><symbol viewBox="0 0 594.5 201.8" id="intertek_logo" xmlns="http://www.w3.org/2000/svg"><path fill="var(--logo-color-1)" d="M10.7 19.3c5.3 0 9.7-4.3 9.7-9.7 0-5.3-4.3-9.7-9.7-9.7-5.3.1-9.6 4.4-9.6 9.8 0 5.3 4.3 9.6 9.6 9.6"/><path fill="var(--logo-color-2)" d="M334.7 31.5c-14.4 0-28 6.5-37.2 17.7-7.1 8.7-11 19.6-11 30.7v36.9c0 5.7 4 9.7 9.8 9.7 5.8 0 9.7-3.9 9.7-9.7V79.5c0-6.6 2.3-13 6.5-18C317.9 54.8 326 51 334.7 51h.3c2.3 0 4.6-.8 6.4-2.3 2-1.6 3.3-3.9 3.6-6.3.3-2.6-.4-5.1-2.2-7.3-2.6-3-5.8-3.6-8.1-3.6M74.2 29.4c-24.6 0-41.8 16.4-41.8 40v32.1c-.1 3.2-2.8 5.7-6 5.7s-5.7-2.4-6-5.5V38.2c0-5.7-4-9.7-9.7-9.7-5.7 0-9.7 4-9.7 9.7v63.1c0 14 11.4 25.4 25.3 25.4 13.5 0 24.6-10.5 25.3-24 .1-.5.1-.9.1-1.4V70.5c0-13.4 9-22.4 22.4-22.4 13.4 0 22.4 9 22.4 22.4v46.3c0 5.7 4 9.7 9.7 9.7 5.7 0 9.7-4 9.7-9.7V69.4c.1-23.6-17.1-40-41.7-40m100.9 77.8c-6.1 0-12.6-2.6-18.1-7.1-6.7-5.5-10.6-13.7-10.5-22.4V51H166c5.2 0 9.4-4.2 9.4-9.4s-4.2-9.4-9.4-9.4h-19.5V9.7c0-5.7-4-9.7-9.8-9.7-5.7 0-9.7 4-9.7 9.7v68c0 14.5 6.4 28.1 17.7 37.4 8.9 7.3 18.9 11 29.8 11h.1c5.7 0 9.7-4 9.7-9.8 0-5.4-3.7-9.1-9.2-9.1m416 1.5-37.3-37.3 28.4-24.3c2-1.8 3.4-4.9 3.4-7.6 0-5.7-4-9.7-9.7-9.7-2.8 0-5.8 1.3-8.2 3.4l-35.1 30.1V9.7c0-5.7-4-9.7-9.7-9.7-5.7 0-9.7 4-9.7 9.7v107.2c0 5.7 4 9.7 9.7 9.7 5.7 0 9.7-4 9.7-9.7V90.6c0-1.4.6-2.7 1.7-3.7 2.1-1.8 5.1-1.6 7.1.4l35.9 35.8c1.8 2 4.9 3.4 7.6 3.4 5.7 0 9.7-4 9.7-9.7-.1-2.7-1.4-5.7-3.5-8.1m-191.9-1.5c-6.1 0-12.6-2.6-18.1-7.1-6.7-5.5-10.6-13.7-10.5-22.4V51h19.5c5.2 0 9-4 9-9.4 0-5.5-3.8-9.4-9-9.4h-19.5V9.7c0-5.7-4-9.7-9.8-9.7-5.7 0-9.7 4-9.7 9.7v68c0 14.5 6.4 28.1 17.7 37.4 8.9 7.3 18.9 11 29.8 11h.1c5.7 0 9.7-4 9.7-9.8.1-5.4-3.6-9.1-9.2-9.1m86.4-66.4c-8.8-7.2-19.3-11-30.5-11-14.4 0-28 6.5-37.2 17.7-17.1 20.9-14.1 50.6 6.7 67.7 8.7 7.1 19.6 11.1 30.8 11.1 2.4 0 4.8-.2 7.2-.5 1.8-.3 4.3-1.1 6.3-3.5 3.3-4.1 2.7-10.3-1.4-13.6-1.5-1.2-3.4-1.9-5.6-1.9-.6 0-1.2 0-1.8.1-1.4.2-2.8.3-4.3.3-17 0-29.9-13.1-29.9-29.2s13.1-29.2 29.2-29.2c13.1 0 24.2 8.7 27.9 20.6h-27.9c-4.8 0-8.7 3.9-8.7 8.7 0 4.8 3.8 8.7 8.5 8.7H492c4 0 7.3-1.7 9.2-4 1.6-1.9 2.3-4.3 2.2-6.9-.7-13.6-7.2-26.4-17.8-35.1m-223.9 0c-8.8-7.2-19.3-11-30.5-11-14.4 0-28 6.5-37.2 17.7-17.1 20.9-14.1 50.6 6.7 67.7 8.7 7.1 19.6 11.1 30.8 11.1 2.4 0 4.8-.2 7.2-.5 1.8-.3 4.3-1.1 6.3-3.5 3.3-4.1 2.7-10.3-1.4-13.6-1.5-1.2-3.4-1.9-5.6-1.9-.6 0-1.2 0-1.8.1-1.4.2-2.8.3-4.3.3-17 0-29.9-13.1-29.9-29.2s13.1-29.2 29.2-29.2c13.1 0 24.2 8.7 27.9 20.6h-27.9c-4.8 0-8.7 3.9-8.7 8.7 0 4.8 3.8 8.7 8.5 8.7h37.1c4 0 7.3-1.7 9.2-4 1.6-1.9 2.3-4.3 2.2-6.9-.7-13.6-7.2-26.4-17.8-35.1"/><path fill="var(--logo-color-3)" d="M417.6 192.3v-4.8c0-.5-.4-.8-.9-.8h-3.8c-.5 0-.9.3-.9.8v4.8c0 .5.4.9.9.9h3.8c.5 0 .9-.4.9-.9m-15.9-3.7c-.8.2-2.6.3-4.1.3-3.7 0-4.6-2.6-4.6-6.1v-3.3c0-3.5.9-6.1 4.6-6.1 1 0 2.9.1 4.1.3v14.9zm5.6 2.7v-29.8c0-.5-.4-.9-.9-.9h-3.9c-.5 0-.9.4-.9.9v7.6c-1.6-.2-3.1-.3-4.1-.3-6.9 0-10.2 4.1-10.2 10.8v3.3c0 6.7 3.3 10.8 10.2 10.8 2.7 0 6-.4 8.6-1.1 1.1-.4 1.2-.7 1.2-1.3m-28.8-12.2h-9.1v-.2c0-3.4 1.9-5.3 4.6-5.3 2.7 0 4.5 1.9 4.5 5.3v.2zm5.7 2.9v-2.4c0-6.4-3.6-10.9-10.2-10.9s-10.3 4.2-10.3 10.9v3.2c0 8.4 6.1 10.8 10.4 10.8 3.9 0 5.5-.2 8.3-.7.8-.1.9-.4.9-1.1V189c0-.4-.3-.6-.8-.6h-.1c-1.8.2-4.8.4-7.9.4-4.1 0-5.1-3-5.1-5.4v-.1h14c.5-.2.8-.6.8-1.3m-21.7-9.3v-3.1c0-.5-.4-.9-.9-.9-1.7 0-4 .4-6.1 2.1v-.9c0-.5-.4-.9-.9-.9h-3.7c-.5 0-.9.4-.9.9v22.4c0 .5.4.9.9.9h3.9c.5 0 .9-.4.9-.9v-17.2c1.8-.9 3.6-1.5 5.9-1.5.5-.1.9-.4.9-.9m-17.2 19.6v-22.4c0-.5-.4-.9-.9-.9h-3.9c-.5 0-.9.4-.9.9V187c-1.2.6-3.3 1.7-4.8 1.7-1.3 0-2.1-.3-2.7-.8-.8-.7-1-2-1-4.1v-14c0-.5-.4-.9-.9-.9h-3.9c-.5 0-.9.4-.9.9v14c0 3.6.6 6.2 2.1 7.8 1.2 1.2 3.1 1.8 5.3 1.8 2.7 0 4.5-.7 6.7-2.1v1c0 .5.4.9.9.9h3.9c.6 0 1-.4 1-.9m-23.6-5.4c0-2.2-.5-4.3-4.1-6.5L312 177c-1.1-.6-1.7-1.1-1.7-1.8 0-1.3.9-1.8 3-1.8 2.4 0 5.9.3 7.1.5h.2c.4 0 .7-.3.7-.8v-2.5c0-.5-.3-.9-.8-1-2.2-.5-4.2-.9-7.6-.9-5.4 0-8.1 2.1-8.1 6.4 0 2.5 1.5 4.6 3.6 5.9l5.9 3.6c1.4.9 1.9 1.4 1.9 2.2 0 1.2-.4 2.1-3 2.1-1.3 0-5.1-.2-7.2-.5h-.2c-.4 0-.7.3-.7.7v2.6c0 .5.3.9.8 1 2.4.6 6 .9 7.7.9 5.3-.1 8.1-3 8.1-6.7m-20.1 0c0-2.2-.5-4.3-4.1-6.5l-5.6-3.4c-1.1-.6-1.7-1.1-1.7-1.8 0-1.3.9-1.8 3-1.8 2.4 0 5.9.3 7.1.5h.2c.4 0 .7-.3.7-.8v-2.5c0-.5-.3-.9-.8-1-2.2-.5-4.2-.9-7.6-.9-5.4 0-8.1 2.1-8.1 6.4 0 2.5 1.5 4.6 3.6 5.9l5.9 3.6c1.4.9 1.9 1.4 1.9 2.2 0 1.2-.4 2.1-3 2.1-1.3 0-5.1-.2-7.2-.5h-.2c-.4 0-.7.3-.7.7v2.6c0 .5.3.9.8 1 2.4.6 6 .9 7.7.9 5.3-.1 8.1-3 8.1-6.7m-28.3-7.4h-7.5l3.1-12.7c.1-.5.3-.7.7-.7.4 0 .6.2.7.7l3 12.7zm9.3 13v-.2l-7-26.9c-1-4-4.1-4.4-6-4.4-1.8 0-4.9.4-6 4.4l-7 26.9v.2c0 .4.3.7.8.7h4.5c.4 0 .7-.3.8-.7l2-8.1h9.9l2 8.1c.1.4.4.7.8.7h4.5c.3 0 .7-.3.7-.7m-38.7-.2v-4.8c0-.5-.4-.8-.9-.8h-3.8c-.5 0-.9.3-.9.8v4.8c0 .5.4.9.9.9h3.8c.5 0 .9-.4.9-.9m-5.7-22.5c0-.4-.3-.7-.8-.7H233c-.4 0-.8.3-.9.7l-4.6 18.4H227.2c-.3 0-.4-.2-.6-.9l-4.3-17.4c-.1-.4-.4-.8-.8-.8h-4.3c-.6 0-.8.3-.8.7v.3l5.6 19.6c.9 3.3 2.5 3.6 3.7 3.6h.6l-.3 1.3c-.6 2.2-1.5 2.7-3.4 2.7-1.2 0-3.6-.2-4.8-.3h-.1c-.5 0-.9.3-.9.8v2.7c0 .4.4.6.9.7 1 .3 3.1.6 4.5.6 5.8 0 7.4-2.1 8.7-6.7l7.2-25c.1-.2.1-.2.1-.3M215 192.5v-2.7c0-.4-.3-.6-.9-.6h-2.3c-1.5 0-1.7-.3-1.7-2.4v-13.5h3.9c.5 0 .9-.4.9-.9v-2.5c0-.5-.4-.9-.9-.9h-3.9v-4.4c0-.4-.3-.6-.7-.6h-.2l-4 .7c-.5.1-.9.4-.9.9v3.5h-4c-.5 0-.9.4-.9.9v1.9c0 .5.4.8.9.9l4 .6v13.5c0 5.7 2 6.8 6.8 6.8.9 0 1.9-.1 2.9-.3.8-.2 1-.5 1-.9m-18.3-.2v-22.4c0-.5-.4-.9-.9-.9h-3.9c-.5 0-.9.4-.9.9v22.4c0 .5.4.9.9.9h3.9c.5 0 .9-.4.9-.9m.1-27.3v-3.8c0-.5-.4-.9-.9-.9h-4.2c-.5 0-.9.4-.9.9v3.8c0 .5.4.9.9.9h4.2c.5-.1.9-.5.9-.9M186 192.3v-30.9c0-.5-.3-.9-.8-.9h-4c-.5 0-.9.4-.9.9v30.9c0 .5.4.9.9.9h4c.4 0 .8-.4.8-.9m-16.3-4.5c-1.2.7-2.8 1.2-4.4 1.2-2.1 0-3.1-.6-3.1-2.7v-.2c0-2.4.9-3.6 4.8-3.6h2.7v5.3zm5.7 4.5v-15.4c0-5.5-3.3-8.2-9.4-8.2-3 0-5.4.3-7.2.7-.6.1-.8.4-.8.9v2.7c0 .6.3.7.8.7h.2c1.4-.2 4.2-.3 7-.3 2.5 0 3.8.7 3.8 3.5v1.9H167c-7.5 0-10.5 2.5-10.5 7.4v.2c0 5.8 3.9 7.2 7.4 7.2 2.1 0 4.1-.7 6-1.9v.7c0 .5.4.9.9.9h3.6c.6-.1 1-.5 1-1m-22.6 0v-22.4c0-.5-.4-.9-.9-.9H148c-.5 0-.9.4-.9.9V187c-1.2.6-3.3 1.7-4.8 1.7-1.3 0-2.1-.3-2.7-.8-.8-.7-1-2-1-4.1v-14c0-.5-.4-.9-.9-.9h-3.9c-.5 0-.9.4-.9.9v14c0 3.6.6 6.2 2.1 7.8 1.2 1.2 3.1 1.8 5.3 1.8 2.7 0 4.5-.7 6.7-2.1v1c0 .5.4.9.9.9h3.9c.6 0 1-.4 1-.9m-30.3-12.1c0 5.7-2 8.2-6.2 8.2s-6.2-2.5-6.2-8.2v-5.8c0-5.7 2-8.2 6.2-8.2s6.2 2.5 6.2 8.2v5.8zm6 0v-5.8c0-9.4-5.1-13.4-12.2-13.4s-12.2 3.9-12.2 13.4v5.8c0 8.1 3.8 12.2 9.4 13.2v1c0 4.3 2.9 6 6.9 6 1.4 0 3.4-.3 4.2-.5.6-.2.9-.5.9-.9v-2.7c0-.4-.4-.7-1-.7h-4.2c-.7 0-1.3-.3-1.3-1.4v-.9c5.7-1 9.5-5 9.5-13.1m-39 12.1v-30.9c0-.5-.3-.9-.8-.9h-4c-.5 0-.9.4-.9.9v30.9c0 .5.4.9.9.9h4c.4 0 .8-.4.8-.9m-16.3-4.5c-1.2.7-2.8 1.2-4.4 1.2-2.1 0-3.1-.6-3.1-2.7v-.2c0-2.4.9-3.6 4.8-3.6h2.7v5.3zm5.7 4.5v-15.4c0-5.5-3.3-8.2-9.4-8.2-3 0-5.4.3-7.2.7-.6.1-.8.4-.8.9v2.7c0 .6.3.7.8.7h.2c1.4-.2 4.2-.3 7-.3 2.5 0 3.8.7 3.8 3.5v1.9h-2.7c-7.5 0-10.5 2.5-10.5 7.4v.2c0 5.8 3.9 7.2 7.4 7.2 2.1 0 4.1-.7 6-1.9v.7c0 .5.4.9.9.9H78c.5-.1.9-.5.9-1m-20.9.2v-2.7c0-.4-.3-.6-.9-.6h-2.3c-1.5 0-1.7-.3-1.7-2.4v-13.5H57c.5 0 .9-.4.9-.9v-2.5c0-.5-.4-.9-.9-.9h-3.9v-4.4c0-.4-.3-.6-.7-.6h-.2l-4 .7c-.5.1-.9.4-.9.9v3.5h-4c-.5 0-.9.4-.9.9v1.9c0 .5.4.8.9.9l4 .6v13.5c0 5.7 2 6.8 6.8 6.8.9 0 1.9-.1 2.9-.3.7-.2 1-.5 1-.9m-22.1-9.6c0 3.5-1.6 5.8-4.6 5.8-3 0-4.6-2.3-4.6-5.8v-3.5c0-3.5 1.6-5.8 4.6-5.8 3 0 4.6 2.3 4.6 5.8v3.5zm5.7 0v-3.5c0-6.1-3.5-10.7-10.2-10.7-6.7 0-10.2 4.5-10.2 10.7v3.5c0 6.1 3.5 10.7 10.2 10.7 6.7-.1 10.2-4.6 10.2-10.7m-18.9-17.3v-3.4c0-.5-.4-.8-.9-.8H.8c-.5 0-.9.3-.9.8v3.4c0 .5.4.8.9.8h7.5v26c0 .5.4.9.9.9h4.2c.5 0 .9-.4.9-.9v-26h7.5c.5-.1.9-.4.9-.8"/></symbol><symbol viewBox="0 0 25.602 25.6" id="minus" xmlns="http://www.w3.org/2000/svg"><g data-name="Group 1167" fill="none" stroke="currentColor"><path data-name="Path 102" d="M12.802 25.099a12.3 12.3 0 0 0 12.3-12.3 12.3 12.3 0 0 0-12.3-12.3 12.3 12.3 0 0 0-12.3 12.3 12.3 12.3 0 0 0 12.3 12.3Z"/><path data-name="Path 105" d="M18.985 12.798H6.616"/></g></symbol><symbol viewBox="0 0 60.125 60.124" id="news-yellow" xmlns="http://www.w3.org/2000/svg"><g data-name="Group 2157"><path data-name="Path 1208" d="M60.125 30.062a30.061 30.061 0 0 1-30.062 30.062A30.061 30.061 0 0 1 0 30.062 30.061 30.061 0 0 1 30.063 0a30.061 30.061 0 0 1 30.062 30.062" fill="#ffc700"/><path data-name="Path 1210" d="M37.745 13.958H13.252v29.537a3.765 3.765 0 0 0 3.764 3.763h21.408m-3.865-24.547h2.072m-6.307 4.376h6.307M17.949 40.215h13.594m-13.594-8.752h18.682m-18.682 4.375h18.682m-10.253-8.907h-8.43v-6.253h8.43Zm18.714 4.532h3.764v12.032a3.765 3.765 0 0 1-7.529 0V13.958" fill="none" stroke="#06213d" stroke-linecap="round" stroke-linejoin="round" stroke-width="2.01"/></g></symbol><symbol viewBox="0 0 23.521 23.515" id="phone" xmlns="http://www.w3.org/2000/svg"><g data-name="Group 662" fill="#06213d" stroke="#06213d" stroke-width=".25"><path data-name="Path 79" d="m21.512 15.49-3.229-.74h-.01l-.063-.016a2.567 2.567 0 0 0-2.408.72l-.724.793a.439.439 0 0 0 .03.62.438.438 0 0 0 .619-.029l.723-.793a1.687 1.687 0 0 1 1.572-.455l.064.015h.011l3.218.739a1.522 1.522 0 0 1 1.204 1.473v2.65a1.98 1.98 0 0 1-.606 1.506 3.113 3.113 0 0 1-2.173.519 20.876 20.876 0 0 1-4.724-1.142 21.184 21.184 0 0 1-7.782-5.071 21.171 21.171 0 0 1-5.058-7.762.137.137 0 0 0-.006-.017 20.882 20.882 0 0 1-1.14-4.71 3.126 3.126 0 0 1 .52-2.182 1.965 1.965 0 0 1 1.493-.6h2.659a1.52 1.52 0 0 1 1.475 1.2.069.069 0 0 0 0 .013l.735 3.205v.012l.013.054a1.691 1.691 0 0 1-.452 1.58L6.201 8.231a.439.439 0 0 0-.029.62.439.439 0 0 0 .62.029l1.271-1.16a2.567 2.567 0 0 0 .718-2.417l-.012-.055v-.009L8.03 2.01v-.014A2.42 2.42 0 0 0 5.706.126H3.03a2.816 2.816 0 0 0-2.142.9 3.944 3.944 0 0 0-.732 2.86 21.853 21.853 0 0 0 1.184 4.9c0 .006 0 .012.007.017A22.034 22.034 0 0 0 6.614 16.9a22.057 22.057 0 0 0 8.1 5.276 21.8 21.8 0 0 0 4.926 1.189 4.853 4.853 0 0 0 .5.025 3.607 3.607 0 0 0 2.354-.757 2.818 2.818 0 0 0 .9-2.155V17.81a2.394 2.394 0 0 0-1.882-2.32"/><path data-name="Path 80" d="M7.181 9.8a.438.438 0 0 0-.21.584 11.345 11.345 0 0 0 1.988 2.942 11.335 11.335 0 0 0 2.587 2.205.439.439 0 1 0 .464-.745 10.476 10.476 0 0 1-2.391-2.041l-.011-.013a10.491 10.491 0 0 1-1.843-2.726.439.439 0 0 0-.584-.21"/><path data-name="Path 81" d="M13.874 16.617a.573.573 0 0 0 0-.811.574.574 0 0 0-.812 0 .574.574 0 0 0 0 .812.574.574 0 0 0 .812 0"/></g></symbol><symbol viewBox="0 0 100 100" style="enable-background:new 0 0 100 100" xml:space="preserve" id="play-button" xmlns="http://www.w3.org/2000/svg"><circle cx="50" cy="50" r="48" style="opacity:.2"/><path d="M35.8 30.3V64l28.9-17-28.9-16.7z" style="fill:none;stroke:#fff;stroke-width:3.9733;stroke-linecap:round;stroke-linejoin:round;stroke-miterlimit:10" transform="translate(2.846 2.846)"/><path d="M74.4 74.6h0m3.8-4.4c12.7-17.2 9.1-41.4-8.1-54.1s-41.3-9.1-54 8.1-9.1 41.3 8.1 54c13.5 10 31.9 10.1 45.6.3" style="fill:none;stroke:#fff;stroke-width:3.9733;stroke-linecap:round;stroke-miterlimit:10" transform="translate(2.846 2.846)"/></symbol><symbol viewBox="0 0 25.602 25.6" id="plus" xmlns="http://www.w3.org/2000/svg"><g data-name="Group 1100" fill="none" stroke="currentColor"><path data-name="Path 102" d="M12.801 25.1a12.3 12.3 0 0 0 12.3-12.3A12.3 12.3 0 0 0 12.801.5a12.3 12.3 0 0 0-12.3 12.3 12.3 12.3 0 0 0 12.3 12.3Z"/><path data-name="Path 104" d="M12.801 6.614v12.372"/><path data-name="Path 105" d="M18.984 12.799H6.615"/></g></symbol><symbol viewBox="0 0 26 26" style="enable-background:new 0 0 26 26" xml:space="preserve" id="search-close" xmlns="http://www.w3.org/2000/svg"><path style="fill:none;stroke-width:3.25;stroke-linecap:round;stroke-linejoin:round" d="m3.867 3.867 18.267 18.267M22.133 3.867 3.867 22.133"/></symbol><symbol viewBox="0 0 26 26" style="enable-background:new 0 0 26 26" xml:space="preserve" id="search-icon" xmlns="http://www.w3.org/2000/svg"><circle style="fill:none;stroke-width:3.25;stroke-linecap:round;stroke-linejoin:round" cx="10.804" cy="10.762" r="8.591"/><path style="fill:none;stroke-width:3.25;stroke-linecap:round;stroke-linejoin:round" d="m16.901 16.814 7.014 7.014"/></symbol><symbol viewBox="1619.266 79.348 25.471 25.304" id="search-icon-dark" xmlns="http://www.w3.org/2000/svg"><g data-name="Group 542"><path d="M1639.77 89.6c0-5.653-4.6-10.252-10.253-10.252-5.652 0-10.251 4.599-10.251 10.251 0 5.653 4.599 10.252 10.251 10.252 2.221 0 4.274-.717 5.954-1.922l6.89 6.723 2.375-2.375-6.89-6.724a10.184 10.184 0 0 0 1.923-5.954m-17.143 0a6.9 6.9 0 0 1 6.891-6.891 6.9 6.9 0 0 1 6.892 6.891 6.9 6.9 0 0 1-6.892 6.892 6.9 6.9 0 0 1-6.891-6.892" fill="#06213d" fill-rule="evenodd" data-name="Path 13"/></g></symbol><symbol viewBox="0 0 33.9 33.9" style="enable-background:new 0 0 33.9 33.9" xml:space="preserve" id="social-icon-X" xmlns="http://www.w3.org/2000/svg"><path d="M16.9.9C8.1.9.9 8.1.9 16.9s7.2 16 16 16 16-7.2 16-16-7.1-16-16-16zm3.6 24.9-4.7-6.9-5.9 6.9H8.3l6.8-7.9-6.8-9.8h5.2l4.5 6.5 5.6-6.5h1.5l-6.5 7.5 7 10.2h-5.1z"/><path d="m17.1 15.5-4.4-6.3h-2.4l5.5 7.8.7 1 4.7 6.7h2.3l-5.7-8.2z"/></symbol><symbol viewBox="0 0 34 33.8" style="enable-background:new 0 0 34 33.8" xml:space="preserve" id="social-icon-facebook" xmlns="http://www.w3.org/2000/svg"><path d="M17 1C8.1 1 1 8.2 1 17c0 7.9 5.7 14.6 13.5 15.8V21.6h-4.1V17h4.1v-3.5c0-4 2.4-6.2 6-6.2 1.2 0 2.4.1 3.6.3v3.9h-2c-1.3-.2-2.4.7-2.6 2V17h4.4l-.7 4.6h-3.7v11.2c8.7-1.4 14.7-9.6 13.3-18.3C31.5 6.7 24.9 1 17 1"/></symbol><symbol viewBox="0 0 34 33.8" style="enable-background:new 0 0 34 33.8" xml:space="preserve" id="social-icon-insta" xmlns="http://www.w3.org/2000/svg"><path d="M24.89 12.964c-.045-.945-.204-1.459-.337-1.8a3.005 3.005 0 0 0-.728-1.115 3.003 3.003 0 0 0-1.118-.724c-.341-.132-.856-.289-1.801-.33-1.024-.045-1.33-.054-3.922-.049-2.59.005-2.896.016-3.92.064-.945.045-1.458.204-1.8.337a3.006 3.006 0 0 0-1.115.728 3.01 3.01 0 0 0-.724 1.118c-.131.342-.29.856-.33 1.801-.044 1.024-.054 1.33-.049 3.921.005 2.591.016 2.898.064 3.92.044.947.204 1.46.337 1.802.177.452.388.775.728 1.114.34.338.664.549 1.117.724.343.132.856.289 1.802.33 1.024.044 1.33.054 3.92.05 2.592-.006 2.899-.017 3.922-.065.945-.045 1.459-.204 1.8-.337a3.017 3.017 0 0 0 1.115-.728c.339-.34.548-.664.724-1.117.132-.343.289-.857.33-1.803.045-1.023.054-1.33.05-3.92-.005-2.59-.017-2.898-.065-3.92zm-7.88 8.918a4.982 4.982 0 1 1-.02-9.964 4.982 4.982 0 0 1 .02 9.964zm5.161-9.007a1.164 1.164 0 1 1-.004-2.329 1.164 1.164 0 0 1 .004 2.329z"/><path d="M16.994 13.666a3.234 3.234 0 1 0 .012 6.469 3.234 3.234 0 0 0-.012-6.47z"/><path d="M17 .9C8.163.9 1 8.063 1 16.9s7.163 16 16 16 16-7.163 16-16-7.163-16-16-16zm9.651 19.982c-.045 1.033-.207 1.738-.446 2.356a4.757 4.757 0 0 1-1.116 1.72 4.756 4.756 0 0 1-1.716 1.123c-.617.24-1.322.406-2.354.455-1.035.05-1.365.061-4 .066-2.635.005-2.966-.005-4-.05-1.033-.046-1.74-.208-2.356-.447a4.758 4.758 0 0 1-1.721-1.116 4.75 4.75 0 0 1-1.123-1.716c-.241-.617-.406-1.322-.455-2.354-.05-1.035-.061-1.366-.066-4-.005-2.635.005-2.965.05-4 .046-1.034.208-1.74.447-2.357a4.754 4.754 0 0 1 1.116-1.72 4.747 4.747 0 0 1 1.717-1.123c.616-.241 1.32-.406 2.353-.455 1.035-.05 1.366-.061 4-.066 2.636-.005 2.966.005 4 .05 1.034.045 1.74.208 2.357.447.638.246 1.18.578 1.72 1.116a4.76 4.76 0 0 1 1.123 1.716c.24.617.406 1.322.455 2.355.05 1.034.061 1.365.066 4 .005 2.634-.005 2.965-.05 4z"/></symbol><symbol viewBox="0 0 33.9 33.9" style="enable-background:new 0 0 33.9 33.9" xml:space="preserve" id="social-icon-linkedin" xmlns="http://www.w3.org/2000/svg"><path class="bist0" d="M16.9.9C8.1.9.9 8.1.9 16.9s7.2 16 16 16 16-7.2 16-16-7.1-16-16-16m-6.6 7.3c1 .1 1.7 1 1.6 2s-1 1.7-2 1.6c-.9-.1-1.6-.9-1.6-1.8.1-1.1 1-1.9 2-1.8m2 15.4H8.4V13.4h3.9v10.2zm13.3 0h-3.9V18c.1-.5-.1-1-.4-1.4-.3-.3-.6-.4-1-.4s-.9.2-1.2.5c-.4.6-.5 1.3-.4 1.9v4.9h-3.9V13.4h3.6v1.7c.4-.6 1-1.1 1.6-1.5.6-.3 1.3-.5 2-.4.9 0 1.8.3 2.5 1 .7.8 1 1.9.9 3l.2 6.4z"/></symbol><symbol viewBox="0 0 33.9 33.9" style="enable-background:new 0 0 33.9 33.9" xml:space="preserve" id="social-icon-twitter" xmlns="http://www.w3.org/2000/svg"><path d="M16.9.9C8.1.9.9 8.1.9 16.9s7.2 16 16 16 16-7.2 16-16-7.1-16-16-16M24.8 13s.4 1.9-1 5.2c-1.6 3.8-5.3 6.4-9.4 6.7-4.7.3-7.2-1.8-7.2-1.8 2.1.2 4.2-.4 5.9-1.6-3.2-.4-3.7-2.9-3.7-2.9.6.1 1.2.1 1.8 0-1.8-.5-3.2-2.1-3.2-4 .5.3 1.1.4 1.8.4-1.8-1.1-2.3-3.5-1.3-5.3 4 4.4 8.4 4.2 8.4 4.2-.1-.3-.1-.6-.1-1 0-2.2 1.8-4 4-4 1.1 0 2.2.5 2.9 1.3.9-.1 1.8-.3 2.5-.8-.3.9-.9 1.6-1.8 2.1.5-.1 1.9-.4 2.2-.6-.3.8-1 1.5-1.8 2.1"/></symbol><symbol viewBox="0 0 33.9 33.9" style="enable-background:new 0 0 33.9 33.9" xml:space="preserve" id="social-icon-youtube" xmlns="http://www.w3.org/2000/svg"><path d="M16.9.9C8.1.9.9 8.1.9 16.9s7.2 16 16 16 16-7.2 16-16-7.1-16-16-16zm9 19.6c0 1.2-1 2.2-2.2 2.2-2.3.2-4.6.3-6.8.3s-4.5 0-6.7-.3c-1.2 0-2.3-1-2.3-2.2v-7.3c0-1.2 1-2.2 2.3-2.2 2.2-.2 4.5-.3 6.7-.3 2.3-.1 4.6 0 6.9.3 1.2 0 2.2 1 2.2 2.2l-.1 7.3zm-11.7-7.1 6.1 3.5-6.1 3.5v-7z"/></symbol><symbol viewBox="0 0 13.5 8" style="enable-background:new 0 0 13.5 8" xml:space="preserve" id="utility-nav-icon" xmlns="http://www.w3.org/2000/svg"><path style="fill:none;stroke-width:2;stroke-linecap:round;stroke-linejoin:round" d="m1.225 1.023 5.588 5.954 5.588-5.954"/></symbol><symbol id="video-modal-close" viewBox="0 0 41.7 42.1" style="enable-background:new 0 0 41.7 42.1" xml:space="preserve" xmlns="http://www.w3.org/2000/svg"><style>.bmst1{fill:none;stroke-width:2;stroke-linecap:round;stroke-linejoin:round}</style><path class="bmst1" d="M20.9 1.8c10.6 0 19.2 8.6 19.2 19.2s-8.6 19.2-19.2 19.2S1.7 31.6 1.7 21C1.6 10.4 10.2 1.8 20.9 1.8M14.6 14.8l12.5 12.5M27.1 14.8 14.6 27.3"/></symbol></svg>